%TF.GenerationSoftware,KiCad,Pcbnew,9.0.4*%
%TF.CreationDate,2025-10-31T21:14:42-06:00*%
%TF.ProjectId,tutorial,7475746f-7269-4616-9c2e-6b696361645f,rev?*%
%TF.SameCoordinates,Original*%
%TF.FileFunction,Drillmap*%
%TF.FilePolarity,Positive*%
%FSLAX45Y45*%
G04 Gerber Fmt 4.5, Leading zero omitted, Abs format (unit mm)*
G04 Created by KiCad (PCBNEW 9.0.4) date 2025-10-31 21:14:42*
%MOMM*%
%LPD*%
G01*
G04 APERTURE LIST*
%ADD10C,0.050000*%
%ADD11C,0.200000*%
%ADD12C,0.100000*%
%ADD13C,0.110000*%
G04 APERTURE END LIST*
D10*
X5900000Y-12650000D02*
X12800000Y-12650000D01*
X5900000Y-7650000D02*
X12800000Y-7650000D01*
X5900000Y-12650000D02*
G75*
G02*
X5600000Y-12350000I0J300000D01*
G01*
X13100000Y-12350000D02*
X13100000Y-7950000D01*
X5600000Y-7950000D02*
G75*
G02*
X5900000Y-7650000I300000J0D01*
G01*
X5600000Y-12350000D02*
X5600000Y-7950000D01*
X12800000Y-7650000D02*
G75*
G02*
X13100000Y-7950000I0J-300000D01*
G01*
X13100000Y-12350000D02*
G75*
G02*
X12800000Y-12650000I-300000J0D01*
G01*
D11*
D12*
X6049000Y-10794000D02*
X6079000Y-10824000D01*
X6079000Y-10794000D02*
X6049000Y-10824000D01*
X6049000Y-11765000D02*
X6079000Y-11795000D01*
X6079000Y-11765000D02*
X6049000Y-11795000D01*
X6063000Y-9962000D02*
X6093000Y-9992000D01*
X6093000Y-9962000D02*
X6063000Y-9992000D01*
X6385000Y-9115000D02*
X6415000Y-9145000D01*
X6415000Y-9115000D02*
X6385000Y-9145000D01*
X6493000Y-10808000D02*
X6523000Y-10838000D01*
X6523000Y-10808000D02*
X6493000Y-10838000D01*
X6517000Y-10036000D02*
X6547000Y-10066000D01*
X6547000Y-10036000D02*
X6517000Y-10066000D01*
X6527000Y-9585000D02*
X6557000Y-9615000D01*
X6557000Y-9585000D02*
X6527000Y-9615000D01*
X6700000Y-8024000D02*
X6730000Y-8054000D01*
X6730000Y-8024000D02*
X6700000Y-8054000D01*
X6848000Y-10552000D02*
X6878000Y-10582000D01*
X6878000Y-10552000D02*
X6848000Y-10582000D01*
X6859000Y-9709000D02*
X6889000Y-9739000D01*
X6889000Y-9709000D02*
X6859000Y-9739000D01*
X6925000Y-9288000D02*
X6955000Y-9318000D01*
X6955000Y-9288000D02*
X6925000Y-9318000D01*
X7048000Y-10349000D02*
X7078000Y-10379000D01*
X7078000Y-10349000D02*
X7048000Y-10379000D01*
X7050000Y-9986000D02*
X7080000Y-10016000D01*
X7080000Y-9986000D02*
X7050000Y-10016000D01*
X7143000Y-10808000D02*
X7173000Y-10838000D01*
X7173000Y-10808000D02*
X7143000Y-10838000D01*
X7369000Y-8821000D02*
X7399000Y-8851000D01*
X7399000Y-8821000D02*
X7369000Y-8851000D01*
X7725000Y-8530000D02*
X7755000Y-8560000D01*
X7755000Y-8530000D02*
X7725000Y-8560000D01*
X7809500Y-10551000D02*
X7839500Y-10581000D01*
X7839500Y-10551000D02*
X7809500Y-10581000D01*
X7819500Y-10911000D02*
X7849500Y-10941000D01*
X7849500Y-10911000D02*
X7819500Y-10941000D01*
X7885000Y-10365000D02*
X7915000Y-10395000D01*
X7915000Y-10365000D02*
X7885000Y-10395000D01*
X7970000Y-8277000D02*
X8000000Y-8307000D01*
X8000000Y-8277000D02*
X7970000Y-8307000D01*
X7983000Y-9771000D02*
X8013000Y-9801000D01*
X8013000Y-9771000D02*
X7983000Y-9801000D01*
X7990000Y-9607000D02*
X8020000Y-9637000D01*
X8020000Y-9607000D02*
X7990000Y-9637000D01*
X8045000Y-12171000D02*
X8075000Y-12201000D01*
X8075000Y-12171000D02*
X8045000Y-12201000D01*
X8113000Y-8569000D02*
X8143000Y-8599000D01*
X8143000Y-8569000D02*
X8113000Y-8599000D01*
X8118000Y-9336000D02*
X8148000Y-9366000D01*
X8148000Y-9336000D02*
X8118000Y-9366000D01*
X8140000Y-10953000D02*
X8170000Y-10983000D01*
X8170000Y-10953000D02*
X8140000Y-10983000D01*
X8140000Y-11881000D02*
X8170000Y-11911000D01*
X8170000Y-11881000D02*
X8140000Y-11911000D01*
X8338000Y-11438000D02*
X8368000Y-11468000D01*
X8368000Y-11438000D02*
X8338000Y-11468000D01*
X8341000Y-10886000D02*
X8371000Y-10916000D01*
X8371000Y-10886000D02*
X8341000Y-10916000D01*
X8392000Y-8460000D02*
X8422000Y-8490000D01*
X8422000Y-8460000D02*
X8392000Y-8490000D01*
X8448000Y-11523000D02*
X8478000Y-11553000D01*
X8478000Y-11523000D02*
X8448000Y-11553000D01*
X8462000Y-10254000D02*
X8492000Y-10284000D01*
X8492000Y-10254000D02*
X8462000Y-10284000D01*
X8510000Y-8947000D02*
X8540000Y-8977000D01*
X8540000Y-8947000D02*
X8510000Y-8977000D01*
X8510000Y-9860000D02*
X8540000Y-9890000D01*
X8540000Y-9860000D02*
X8510000Y-9890000D01*
X8527000Y-9484000D02*
X8557000Y-9514000D01*
X8557000Y-9484000D02*
X8527000Y-9514000D01*
X8547500Y-10160000D02*
X8577500Y-10190000D01*
X8577500Y-10160000D02*
X8547500Y-10190000D01*
X8547500Y-10400000D02*
X8577500Y-10430000D01*
X8577500Y-10400000D02*
X8547500Y-10430000D01*
X8605000Y-8390000D02*
X8635000Y-8420000D01*
X8635000Y-8390000D02*
X8605000Y-8420000D01*
X8633903Y-9540506D02*
X8663903Y-9570506D01*
X8663903Y-9540506D02*
X8633903Y-9570506D01*
X8707000Y-9488000D02*
X8737000Y-9518000D01*
X8737000Y-9488000D02*
X8707000Y-9518000D01*
X8709000Y-8056000D02*
X8739000Y-8086000D01*
X8739000Y-8056000D02*
X8709000Y-8086000D01*
X8742500Y-10725000D02*
X8772500Y-10755000D01*
X8772500Y-10725000D02*
X8742500Y-10755000D01*
X8811000Y-9393000D02*
X8841000Y-9423000D01*
X8841000Y-9393000D02*
X8811000Y-9423000D01*
X8814000Y-8298000D02*
X8844000Y-8328000D01*
X8844000Y-8298000D02*
X8814000Y-8328000D01*
X8835000Y-11668000D02*
X8865000Y-11698000D01*
X8865000Y-11668000D02*
X8835000Y-11698000D01*
X8837500Y-10702500D02*
X8867500Y-10732500D01*
X8867500Y-10702500D02*
X8837500Y-10732500D01*
X8937000Y-11667000D02*
X8967000Y-11697000D01*
X8967000Y-11667000D02*
X8937000Y-11697000D01*
X8938000Y-10953000D02*
X8968000Y-10983000D01*
X8968000Y-10953000D02*
X8938000Y-10983000D01*
X8954000Y-8442000D02*
X8984000Y-8472000D01*
X8984000Y-8442000D02*
X8954000Y-8472000D01*
X8961000Y-10393000D02*
X8991000Y-10423000D01*
X8991000Y-10393000D02*
X8961000Y-10423000D01*
X8966000Y-9397000D02*
X8996000Y-9427000D01*
X8996000Y-9397000D02*
X8966000Y-9427000D01*
X9091000Y-9500000D02*
X9121000Y-9530000D01*
X9121000Y-9500000D02*
X9091000Y-9530000D01*
X9092000Y-8178000D02*
X9122000Y-8208000D01*
X9122000Y-8178000D02*
X9092000Y-8208000D01*
X9176000Y-9156000D02*
X9206000Y-9186000D01*
X9206000Y-9156000D02*
X9176000Y-9186000D01*
X9187000Y-9737000D02*
X9217000Y-9767000D01*
X9217000Y-9737000D02*
X9187000Y-9767000D01*
X9215000Y-10975000D02*
X9245000Y-11005000D01*
X9245000Y-10975000D02*
X9215000Y-11005000D01*
X9215000Y-11376000D02*
X9245000Y-11406000D01*
X9245000Y-11376000D02*
X9215000Y-11406000D01*
X9267000Y-9584000D02*
X9297000Y-9614000D01*
X9297000Y-9584000D02*
X9267000Y-9614000D01*
X9277000Y-8704000D02*
X9307000Y-8734000D01*
X9307000Y-8704000D02*
X9277000Y-8734000D01*
X9324000Y-10436000D02*
X9354000Y-10466000D01*
X9354000Y-10436000D02*
X9324000Y-10466000D01*
X9355000Y-11211000D02*
X9385000Y-11241000D01*
X9385000Y-11211000D02*
X9355000Y-11241000D01*
X9413000Y-11462000D02*
X9443000Y-11492000D01*
X9443000Y-11462000D02*
X9413000Y-11492000D01*
X9413000Y-12142000D02*
X9443000Y-12172000D01*
X9443000Y-12142000D02*
X9413000Y-12172000D01*
X9461000Y-10387000D02*
X9491000Y-10417000D01*
X9491000Y-10387000D02*
X9461000Y-10417000D01*
X9473000Y-10957000D02*
X9503000Y-10987000D01*
X9503000Y-10957000D02*
X9473000Y-10987000D01*
X9502500Y-9900000D02*
X9532500Y-9930000D01*
X9532500Y-9900000D02*
X9502500Y-9930000D01*
X9601000Y-10130000D02*
X9631000Y-10160000D01*
X9631000Y-10130000D02*
X9601000Y-10160000D01*
X9626000Y-9442000D02*
X9656000Y-9472000D01*
X9656000Y-9442000D02*
X9626000Y-9472000D01*
X9722000Y-10135000D02*
X9752000Y-10165000D01*
X9752000Y-10135000D02*
X9722000Y-10165000D01*
X9759000Y-9667000D02*
X9789000Y-9697000D01*
X9789000Y-9667000D02*
X9759000Y-9697000D01*
X10223000Y-10963000D02*
X10253000Y-10993000D01*
X10253000Y-10963000D02*
X10223000Y-10993000D01*
X10224000Y-11199000D02*
X10254000Y-11229000D01*
X10254000Y-11199000D02*
X10224000Y-11229000D01*
X10323000Y-9123000D02*
X10353000Y-9153000D01*
X10353000Y-9123000D02*
X10323000Y-9153000D01*
X10328000Y-10633000D02*
X10358000Y-10663000D01*
X10358000Y-10633000D02*
X10328000Y-10663000D01*
X10332000Y-10346000D02*
X10362000Y-10376000D01*
X10362000Y-10346000D02*
X10332000Y-10376000D01*
X10338000Y-8597000D02*
X10368000Y-8627000D01*
X10368000Y-8597000D02*
X10338000Y-8627000D01*
X10451000Y-9272000D02*
X10481000Y-9302000D01*
X10481000Y-9272000D02*
X10451000Y-9302000D01*
X10465000Y-8147000D02*
X10495000Y-8177000D01*
X10495000Y-8147000D02*
X10465000Y-8177000D01*
X10487000Y-12093000D02*
X10517000Y-12123000D01*
X10517000Y-12093000D02*
X10487000Y-12123000D01*
X10707000Y-8690000D02*
X10737000Y-8720000D01*
X10737000Y-8690000D02*
X10707000Y-8720000D01*
X10721000Y-8142000D02*
X10751000Y-8172000D01*
X10751000Y-8142000D02*
X10721000Y-8172000D01*
X10973500Y-11869750D02*
X11003500Y-11899750D01*
X11003500Y-11869750D02*
X10973500Y-11899750D01*
X11078500Y-11869750D02*
X11108500Y-11899750D01*
X11108500Y-11869750D02*
X11078500Y-11899750D01*
X11239500Y-8560000D02*
X11269500Y-8590000D01*
X11269500Y-8560000D02*
X11239500Y-8590000D01*
X11269000Y-9644000D02*
X11299000Y-9674000D01*
X11299000Y-9644000D02*
X11269000Y-9674000D01*
X11277000Y-9416000D02*
X11307000Y-9446000D01*
X11307000Y-9416000D02*
X11277000Y-9446000D01*
X11281000Y-11383500D02*
X11311000Y-11413500D01*
X11311000Y-11383500D02*
X11281000Y-11413500D01*
X11313500Y-10941000D02*
X11343500Y-10971000D01*
X11343500Y-10941000D02*
X11313500Y-10971000D01*
X11313500Y-11043500D02*
X11343500Y-11073500D01*
X11343500Y-11043500D02*
X11313500Y-11073500D01*
X11388500Y-11383500D02*
X11418500Y-11413500D01*
X11418500Y-11383500D02*
X11388500Y-11413500D01*
X11478000Y-8832000D02*
X11508000Y-8862000D01*
X11508000Y-8832000D02*
X11478000Y-8862000D01*
X11570000Y-9647000D02*
X11600000Y-9677000D01*
X11600000Y-9647000D02*
X11570000Y-9677000D01*
X11667000Y-10222000D02*
X11697000Y-10252000D01*
X11697000Y-10222000D02*
X11667000Y-10252000D01*
X11698250Y-9820000D02*
X11728250Y-9850000D01*
X11728250Y-9820000D02*
X11698250Y-9850000D01*
X11706000Y-11433500D02*
X11736000Y-11463500D01*
X11736000Y-11433500D02*
X11706000Y-11463500D01*
X11747000Y-8352000D02*
X11777000Y-8382000D01*
X11777000Y-8352000D02*
X11747000Y-8382000D01*
X11810000Y-12194000D02*
X11840000Y-12224000D01*
X11840000Y-12194000D02*
X11810000Y-12224000D01*
X11815000Y-11699000D02*
X11845000Y-11729000D01*
X11845000Y-11699000D02*
X11815000Y-11729000D01*
X12137000Y-10181000D02*
X12167000Y-10211000D01*
X12167000Y-10181000D02*
X12137000Y-10211000D01*
X12167000Y-9542000D02*
X12197000Y-9572000D01*
X12197000Y-9542000D02*
X12167000Y-9572000D01*
X12177000Y-9741000D02*
X12207000Y-9771000D01*
X12207000Y-9741000D02*
X12177000Y-9771000D01*
X12257000Y-10583000D02*
X12287000Y-10613000D01*
X12287000Y-10583000D02*
X12257000Y-10613000D01*
X12440000Y-11469000D02*
X12470000Y-11499000D01*
X12470000Y-11469000D02*
X12440000Y-11499000D01*
X12866250Y-10758000D02*
X12896250Y-10788000D01*
X12896250Y-10758000D02*
X12866250Y-10788000D01*
X12451000Y-9569000D02*
G75*
G02*
X12391000Y-9569000I-30000J0D01*
G01*
X12391000Y-9569000D02*
G75*
G02*
X12451000Y-9569000I30000J0D01*
G01*
X12366000Y-9599000D02*
X12476000Y-9599000D01*
X12476000Y-9539000D02*
G75*
G02*
X12476000Y-9599000I0J-30000D01*
G01*
X12476000Y-9539000D02*
X12366000Y-9539000D01*
X12366000Y-9539000D02*
G75*
G03*
X12366000Y-9599000I0J-30000D01*
G01*
X12451000Y-10433000D02*
G75*
G02*
X12391000Y-10433000I-30000J0D01*
G01*
X12391000Y-10433000D02*
G75*
G02*
X12451000Y-10433000I30000J0D01*
G01*
X12366000Y-10463000D02*
X12476000Y-10463000D01*
X12476000Y-10403000D02*
G75*
G02*
X12476000Y-10463000I0J-30000D01*
G01*
X12476000Y-10403000D02*
X12366000Y-10403000D01*
X12366000Y-10403000D02*
G75*
G03*
X12366000Y-10463000I0J-30000D01*
G01*
X12869000Y-9569000D02*
G75*
G02*
X12809000Y-9569000I-30000J0D01*
G01*
X12809000Y-9569000D02*
G75*
G02*
X12869000Y-9569000I30000J0D01*
G01*
X12799000Y-9599000D02*
X12879000Y-9599000D01*
X12879000Y-9539000D02*
G75*
G02*
X12879000Y-9599000I0J-30000D01*
G01*
X12879000Y-9539000D02*
X12799000Y-9539000D01*
X12799000Y-9539000D02*
G75*
G03*
X12799000Y-9599000I0J-30000D01*
G01*
X12869000Y-10433000D02*
G75*
G02*
X12809000Y-10433000I-30000J0D01*
G01*
X12809000Y-10433000D02*
G75*
G02*
X12869000Y-10433000I30000J0D01*
G01*
X12799000Y-10463000D02*
X12879000Y-10463000D01*
X12879000Y-10403000D02*
G75*
G02*
X12879000Y-10463000I0J-30000D01*
G01*
X12879000Y-10403000D02*
X12799000Y-10403000D01*
X12799000Y-10403000D02*
G75*
G03*
X12799000Y-10463000I0J-30000D01*
G01*
X5885000Y-8613500D02*
X5885000Y-8713500D01*
X5835000Y-8663500D02*
X5935000Y-8663500D01*
X5885000Y-8867500D02*
X5885000Y-8967500D01*
X5835000Y-8917500D02*
X5935000Y-8917500D01*
X8326000Y-12136000D02*
X8326000Y-12236000D01*
X8276000Y-12186000D02*
X8376000Y-12186000D01*
X8580000Y-12136000D02*
X8580000Y-12236000D01*
X8530000Y-12186000D02*
X8630000Y-12186000D01*
X8834000Y-12136000D02*
X8834000Y-12236000D01*
X8784000Y-12186000D02*
X8884000Y-12186000D01*
X9088000Y-12136000D02*
X9088000Y-12236000D01*
X9038000Y-12186000D02*
X9138000Y-12186000D01*
X9208000Y-7879000D02*
X9208000Y-7979000D01*
X9158000Y-7929000D02*
X9258000Y-7929000D01*
X9462000Y-7879000D02*
X9462000Y-7979000D01*
X9412000Y-7929000D02*
X9512000Y-7929000D01*
X9716000Y-7879000D02*
X9716000Y-7979000D01*
X9666000Y-7929000D02*
X9766000Y-7929000D01*
X9970000Y-7879000D02*
X9970000Y-7979000D01*
X9920000Y-7929000D02*
X10020000Y-7929000D01*
X10224000Y-7879000D02*
X10224000Y-7979000D01*
X10174000Y-7929000D02*
X10274000Y-7929000D01*
X10478000Y-7879000D02*
X10478000Y-7979000D01*
X10428000Y-7929000D02*
X10528000Y-7929000D01*
X10732000Y-7879000D02*
X10732000Y-7979000D01*
X10682000Y-7929000D02*
X10782000Y-7929000D01*
X10986000Y-7879000D02*
X10986000Y-7979000D01*
X10936000Y-7929000D02*
X11036000Y-7929000D01*
D13*
X6549891Y-11063891D02*
X6549891Y-10986109D01*
X6472109Y-10986109D01*
X6472109Y-11063891D01*
X6549891Y-11063891D01*
X6549891Y-11513891D02*
X6549891Y-11436109D01*
X6472109Y-11436109D01*
X6472109Y-11513891D01*
X6549891Y-11513891D01*
X7199891Y-11063891D02*
X7199891Y-10986109D01*
X7122109Y-10986109D01*
X7122109Y-11063891D01*
X7199891Y-11063891D01*
X7199891Y-11513891D02*
X7199891Y-11436109D01*
X7122109Y-11436109D01*
X7122109Y-11513891D01*
X7199891Y-11513891D01*
D11*
X5858277Y-12963984D02*
X5858277Y-12763984D01*
X5858277Y-12763984D02*
X5905896Y-12763984D01*
X5905896Y-12763984D02*
X5934467Y-12773508D01*
X5934467Y-12773508D02*
X5953515Y-12792555D01*
X5953515Y-12792555D02*
X5963039Y-12811603D01*
X5963039Y-12811603D02*
X5972562Y-12849698D01*
X5972562Y-12849698D02*
X5972562Y-12878269D01*
X5972562Y-12878269D02*
X5963039Y-12916365D01*
X5963039Y-12916365D02*
X5953515Y-12935412D01*
X5953515Y-12935412D02*
X5934467Y-12954460D01*
X5934467Y-12954460D02*
X5905896Y-12963984D01*
X5905896Y-12963984D02*
X5858277Y-12963984D01*
X6058277Y-12963984D02*
X6058277Y-12830650D01*
X6058277Y-12868746D02*
X6067801Y-12849698D01*
X6067801Y-12849698D02*
X6077324Y-12840174D01*
X6077324Y-12840174D02*
X6096372Y-12830650D01*
X6096372Y-12830650D02*
X6115420Y-12830650D01*
X6182086Y-12963984D02*
X6182086Y-12830650D01*
X6182086Y-12763984D02*
X6172562Y-12773508D01*
X6172562Y-12773508D02*
X6182086Y-12783031D01*
X6182086Y-12783031D02*
X6191610Y-12773508D01*
X6191610Y-12773508D02*
X6182086Y-12763984D01*
X6182086Y-12763984D02*
X6182086Y-12783031D01*
X6305896Y-12963984D02*
X6286848Y-12954460D01*
X6286848Y-12954460D02*
X6277324Y-12935412D01*
X6277324Y-12935412D02*
X6277324Y-12763984D01*
X6410658Y-12963984D02*
X6391610Y-12954460D01*
X6391610Y-12954460D02*
X6382086Y-12935412D01*
X6382086Y-12935412D02*
X6382086Y-12763984D01*
X6639229Y-12963984D02*
X6639229Y-12763984D01*
X6639229Y-12763984D02*
X6705896Y-12906841D01*
X6705896Y-12906841D02*
X6772562Y-12763984D01*
X6772562Y-12763984D02*
X6772562Y-12963984D01*
X6953515Y-12963984D02*
X6953515Y-12859222D01*
X6953515Y-12859222D02*
X6943991Y-12840174D01*
X6943991Y-12840174D02*
X6924943Y-12830650D01*
X6924943Y-12830650D02*
X6886848Y-12830650D01*
X6886848Y-12830650D02*
X6867801Y-12840174D01*
X6953515Y-12954460D02*
X6934467Y-12963984D01*
X6934467Y-12963984D02*
X6886848Y-12963984D01*
X6886848Y-12963984D02*
X6867801Y-12954460D01*
X6867801Y-12954460D02*
X6858277Y-12935412D01*
X6858277Y-12935412D02*
X6858277Y-12916365D01*
X6858277Y-12916365D02*
X6867801Y-12897317D01*
X6867801Y-12897317D02*
X6886848Y-12887793D01*
X6886848Y-12887793D02*
X6934467Y-12887793D01*
X6934467Y-12887793D02*
X6953515Y-12878269D01*
X7048753Y-12830650D02*
X7048753Y-13030650D01*
X7048753Y-12840174D02*
X7067801Y-12830650D01*
X7067801Y-12830650D02*
X7105896Y-12830650D01*
X7105896Y-12830650D02*
X7124943Y-12840174D01*
X7124943Y-12840174D02*
X7134467Y-12849698D01*
X7134467Y-12849698D02*
X7143991Y-12868746D01*
X7143991Y-12868746D02*
X7143991Y-12925888D01*
X7143991Y-12925888D02*
X7134467Y-12944936D01*
X7134467Y-12944936D02*
X7124943Y-12954460D01*
X7124943Y-12954460D02*
X7105896Y-12963984D01*
X7105896Y-12963984D02*
X7067801Y-12963984D01*
X7067801Y-12963984D02*
X7048753Y-12954460D01*
X7229705Y-12944936D02*
X7239229Y-12954460D01*
X7239229Y-12954460D02*
X7229705Y-12963984D01*
X7229705Y-12963984D02*
X7220182Y-12954460D01*
X7220182Y-12954460D02*
X7229705Y-12944936D01*
X7229705Y-12944936D02*
X7229705Y-12963984D01*
X7229705Y-12840174D02*
X7239229Y-12849698D01*
X7239229Y-12849698D02*
X7229705Y-12859222D01*
X7229705Y-12859222D02*
X7220182Y-12849698D01*
X7220182Y-12849698D02*
X7229705Y-12840174D01*
X7229705Y-12840174D02*
X7229705Y-12859222D01*
D12*
X5567500Y-13277500D02*
X5597500Y-13307500D01*
X5597500Y-13277500D02*
X5567500Y-13307500D01*
D11*
X5896372Y-13183984D02*
X5915420Y-13183984D01*
X5915420Y-13183984D02*
X5934467Y-13193508D01*
X5934467Y-13193508D02*
X5943991Y-13203031D01*
X5943991Y-13203031D02*
X5953515Y-13222079D01*
X5953515Y-13222079D02*
X5963039Y-13260174D01*
X5963039Y-13260174D02*
X5963039Y-13307793D01*
X5963039Y-13307793D02*
X5953515Y-13345888D01*
X5953515Y-13345888D02*
X5943991Y-13364936D01*
X5943991Y-13364936D02*
X5934467Y-13374460D01*
X5934467Y-13374460D02*
X5915420Y-13383984D01*
X5915420Y-13383984D02*
X5896372Y-13383984D01*
X5896372Y-13383984D02*
X5877324Y-13374460D01*
X5877324Y-13374460D02*
X5867801Y-13364936D01*
X5867801Y-13364936D02*
X5858277Y-13345888D01*
X5858277Y-13345888D02*
X5848753Y-13307793D01*
X5848753Y-13307793D02*
X5848753Y-13260174D01*
X5848753Y-13260174D02*
X5858277Y-13222079D01*
X5858277Y-13222079D02*
X5867801Y-13203031D01*
X5867801Y-13203031D02*
X5877324Y-13193508D01*
X5877324Y-13193508D02*
X5896372Y-13183984D01*
X6048753Y-13364936D02*
X6058277Y-13374460D01*
X6058277Y-13374460D02*
X6048753Y-13383984D01*
X6048753Y-13383984D02*
X6039229Y-13374460D01*
X6039229Y-13374460D02*
X6048753Y-13364936D01*
X6048753Y-13364936D02*
X6048753Y-13383984D01*
X6124943Y-13183984D02*
X6248753Y-13183984D01*
X6248753Y-13183984D02*
X6182086Y-13260174D01*
X6182086Y-13260174D02*
X6210658Y-13260174D01*
X6210658Y-13260174D02*
X6229705Y-13269698D01*
X6229705Y-13269698D02*
X6239229Y-13279222D01*
X6239229Y-13279222D02*
X6248753Y-13298269D01*
X6248753Y-13298269D02*
X6248753Y-13345888D01*
X6248753Y-13345888D02*
X6239229Y-13364936D01*
X6239229Y-13364936D02*
X6229705Y-13374460D01*
X6229705Y-13374460D02*
X6210658Y-13383984D01*
X6210658Y-13383984D02*
X6153515Y-13383984D01*
X6153515Y-13383984D02*
X6134467Y-13374460D01*
X6134467Y-13374460D02*
X6124943Y-13364936D01*
X6372562Y-13183984D02*
X6391610Y-13183984D01*
X6391610Y-13183984D02*
X6410658Y-13193508D01*
X6410658Y-13193508D02*
X6420182Y-13203031D01*
X6420182Y-13203031D02*
X6429705Y-13222079D01*
X6429705Y-13222079D02*
X6439229Y-13260174D01*
X6439229Y-13260174D02*
X6439229Y-13307793D01*
X6439229Y-13307793D02*
X6429705Y-13345888D01*
X6429705Y-13345888D02*
X6420182Y-13364936D01*
X6420182Y-13364936D02*
X6410658Y-13374460D01*
X6410658Y-13374460D02*
X6391610Y-13383984D01*
X6391610Y-13383984D02*
X6372562Y-13383984D01*
X6372562Y-13383984D02*
X6353515Y-13374460D01*
X6353515Y-13374460D02*
X6343991Y-13364936D01*
X6343991Y-13364936D02*
X6334467Y-13345888D01*
X6334467Y-13345888D02*
X6324943Y-13307793D01*
X6324943Y-13307793D02*
X6324943Y-13260174D01*
X6324943Y-13260174D02*
X6334467Y-13222079D01*
X6334467Y-13222079D02*
X6343991Y-13203031D01*
X6343991Y-13203031D02*
X6353515Y-13193508D01*
X6353515Y-13193508D02*
X6372562Y-13183984D01*
X6563039Y-13183984D02*
X6582086Y-13183984D01*
X6582086Y-13183984D02*
X6601134Y-13193508D01*
X6601134Y-13193508D02*
X6610658Y-13203031D01*
X6610658Y-13203031D02*
X6620182Y-13222079D01*
X6620182Y-13222079D02*
X6629705Y-13260174D01*
X6629705Y-13260174D02*
X6629705Y-13307793D01*
X6629705Y-13307793D02*
X6620182Y-13345888D01*
X6620182Y-13345888D02*
X6610658Y-13364936D01*
X6610658Y-13364936D02*
X6601134Y-13374460D01*
X6601134Y-13374460D02*
X6582086Y-13383984D01*
X6582086Y-13383984D02*
X6563039Y-13383984D01*
X6563039Y-13383984D02*
X6543991Y-13374460D01*
X6543991Y-13374460D02*
X6534467Y-13364936D01*
X6534467Y-13364936D02*
X6524943Y-13345888D01*
X6524943Y-13345888D02*
X6515420Y-13307793D01*
X6515420Y-13307793D02*
X6515420Y-13260174D01*
X6515420Y-13260174D02*
X6524943Y-13222079D01*
X6524943Y-13222079D02*
X6534467Y-13203031D01*
X6534467Y-13203031D02*
X6543991Y-13193508D01*
X6543991Y-13193508D02*
X6563039Y-13183984D01*
X6715420Y-13383984D02*
X6715420Y-13250650D01*
X6715420Y-13269698D02*
X6724943Y-13260174D01*
X6724943Y-13260174D02*
X6743991Y-13250650D01*
X6743991Y-13250650D02*
X6772563Y-13250650D01*
X6772563Y-13250650D02*
X6791610Y-13260174D01*
X6791610Y-13260174D02*
X6801134Y-13279222D01*
X6801134Y-13279222D02*
X6801134Y-13383984D01*
X6801134Y-13279222D02*
X6810658Y-13260174D01*
X6810658Y-13260174D02*
X6829705Y-13250650D01*
X6829705Y-13250650D02*
X6858277Y-13250650D01*
X6858277Y-13250650D02*
X6877324Y-13260174D01*
X6877324Y-13260174D02*
X6886848Y-13279222D01*
X6886848Y-13279222D02*
X6886848Y-13383984D01*
X6982086Y-13383984D02*
X6982086Y-13250650D01*
X6982086Y-13269698D02*
X6991610Y-13260174D01*
X6991610Y-13260174D02*
X7010658Y-13250650D01*
X7010658Y-13250650D02*
X7039229Y-13250650D01*
X7039229Y-13250650D02*
X7058277Y-13260174D01*
X7058277Y-13260174D02*
X7067801Y-13279222D01*
X7067801Y-13279222D02*
X7067801Y-13383984D01*
X7067801Y-13279222D02*
X7077324Y-13260174D01*
X7077324Y-13260174D02*
X7096372Y-13250650D01*
X7096372Y-13250650D02*
X7124943Y-13250650D01*
X7124943Y-13250650D02*
X7143991Y-13260174D01*
X7143991Y-13260174D02*
X7153515Y-13279222D01*
X7153515Y-13279222D02*
X7153515Y-13383984D01*
X7543991Y-13174460D02*
X7372563Y-13431603D01*
X7801134Y-13183984D02*
X7820182Y-13183984D01*
X7820182Y-13183984D02*
X7839229Y-13193508D01*
X7839229Y-13193508D02*
X7848753Y-13203031D01*
X7848753Y-13203031D02*
X7858277Y-13222079D01*
X7858277Y-13222079D02*
X7867801Y-13260174D01*
X7867801Y-13260174D02*
X7867801Y-13307793D01*
X7867801Y-13307793D02*
X7858277Y-13345888D01*
X7858277Y-13345888D02*
X7848753Y-13364936D01*
X7848753Y-13364936D02*
X7839229Y-13374460D01*
X7839229Y-13374460D02*
X7820182Y-13383984D01*
X7820182Y-13383984D02*
X7801134Y-13383984D01*
X7801134Y-13383984D02*
X7782086Y-13374460D01*
X7782086Y-13374460D02*
X7772563Y-13364936D01*
X7772563Y-13364936D02*
X7763039Y-13345888D01*
X7763039Y-13345888D02*
X7753515Y-13307793D01*
X7753515Y-13307793D02*
X7753515Y-13260174D01*
X7753515Y-13260174D02*
X7763039Y-13222079D01*
X7763039Y-13222079D02*
X7772563Y-13203031D01*
X7772563Y-13203031D02*
X7782086Y-13193508D01*
X7782086Y-13193508D02*
X7801134Y-13183984D01*
X7953515Y-13364936D02*
X7963039Y-13374460D01*
X7963039Y-13374460D02*
X7953515Y-13383984D01*
X7953515Y-13383984D02*
X7943991Y-13374460D01*
X7943991Y-13374460D02*
X7953515Y-13364936D01*
X7953515Y-13364936D02*
X7953515Y-13383984D01*
X8086848Y-13183984D02*
X8105896Y-13183984D01*
X8105896Y-13183984D02*
X8124944Y-13193508D01*
X8124944Y-13193508D02*
X8134467Y-13203031D01*
X8134467Y-13203031D02*
X8143991Y-13222079D01*
X8143991Y-13222079D02*
X8153515Y-13260174D01*
X8153515Y-13260174D02*
X8153515Y-13307793D01*
X8153515Y-13307793D02*
X8143991Y-13345888D01*
X8143991Y-13345888D02*
X8134467Y-13364936D01*
X8134467Y-13364936D02*
X8124944Y-13374460D01*
X8124944Y-13374460D02*
X8105896Y-13383984D01*
X8105896Y-13383984D02*
X8086848Y-13383984D01*
X8086848Y-13383984D02*
X8067801Y-13374460D01*
X8067801Y-13374460D02*
X8058277Y-13364936D01*
X8058277Y-13364936D02*
X8048753Y-13345888D01*
X8048753Y-13345888D02*
X8039229Y-13307793D01*
X8039229Y-13307793D02*
X8039229Y-13260174D01*
X8039229Y-13260174D02*
X8048753Y-13222079D01*
X8048753Y-13222079D02*
X8058277Y-13203031D01*
X8058277Y-13203031D02*
X8067801Y-13193508D01*
X8067801Y-13193508D02*
X8086848Y-13183984D01*
X8343991Y-13383984D02*
X8229706Y-13383984D01*
X8286848Y-13383984D02*
X8286848Y-13183984D01*
X8286848Y-13183984D02*
X8267801Y-13212555D01*
X8267801Y-13212555D02*
X8248753Y-13231603D01*
X8248753Y-13231603D02*
X8229706Y-13241127D01*
X8534468Y-13383984D02*
X8420182Y-13383984D01*
X8477325Y-13383984D02*
X8477325Y-13183984D01*
X8477325Y-13183984D02*
X8458277Y-13212555D01*
X8458277Y-13212555D02*
X8439229Y-13231603D01*
X8439229Y-13231603D02*
X8420182Y-13241127D01*
X8648753Y-13269698D02*
X8629706Y-13260174D01*
X8629706Y-13260174D02*
X8620182Y-13250650D01*
X8620182Y-13250650D02*
X8610658Y-13231603D01*
X8610658Y-13231603D02*
X8610658Y-13222079D01*
X8610658Y-13222079D02*
X8620182Y-13203031D01*
X8620182Y-13203031D02*
X8629706Y-13193508D01*
X8629706Y-13193508D02*
X8648753Y-13183984D01*
X8648753Y-13183984D02*
X8686849Y-13183984D01*
X8686849Y-13183984D02*
X8705896Y-13193508D01*
X8705896Y-13193508D02*
X8715420Y-13203031D01*
X8715420Y-13203031D02*
X8724944Y-13222079D01*
X8724944Y-13222079D02*
X8724944Y-13231603D01*
X8724944Y-13231603D02*
X8715420Y-13250650D01*
X8715420Y-13250650D02*
X8705896Y-13260174D01*
X8705896Y-13260174D02*
X8686849Y-13269698D01*
X8686849Y-13269698D02*
X8648753Y-13269698D01*
X8648753Y-13269698D02*
X8629706Y-13279222D01*
X8629706Y-13279222D02*
X8620182Y-13288746D01*
X8620182Y-13288746D02*
X8610658Y-13307793D01*
X8610658Y-13307793D02*
X8610658Y-13345888D01*
X8610658Y-13345888D02*
X8620182Y-13364936D01*
X8620182Y-13364936D02*
X8629706Y-13374460D01*
X8629706Y-13374460D02*
X8648753Y-13383984D01*
X8648753Y-13383984D02*
X8686849Y-13383984D01*
X8686849Y-13383984D02*
X8705896Y-13374460D01*
X8705896Y-13374460D02*
X8715420Y-13364936D01*
X8715420Y-13364936D02*
X8724944Y-13345888D01*
X8724944Y-13345888D02*
X8724944Y-13307793D01*
X8724944Y-13307793D02*
X8715420Y-13288746D01*
X8715420Y-13288746D02*
X8705896Y-13279222D01*
X8705896Y-13279222D02*
X8686849Y-13269698D01*
X8801134Y-13183984D02*
X8801134Y-13222079D01*
X8877325Y-13183984D02*
X8877325Y-13222079D01*
X9172563Y-13460174D02*
X9163039Y-13450650D01*
X9163039Y-13450650D02*
X9143991Y-13422079D01*
X9143991Y-13422079D02*
X9134468Y-13403031D01*
X9134468Y-13403031D02*
X9124944Y-13374460D01*
X9124944Y-13374460D02*
X9115420Y-13326841D01*
X9115420Y-13326841D02*
X9115420Y-13288746D01*
X9115420Y-13288746D02*
X9124944Y-13241127D01*
X9124944Y-13241127D02*
X9134468Y-13212555D01*
X9134468Y-13212555D02*
X9143991Y-13193508D01*
X9143991Y-13193508D02*
X9163039Y-13164936D01*
X9163039Y-13164936D02*
X9172563Y-13155412D01*
X9353515Y-13383984D02*
X9239230Y-13383984D01*
X9296372Y-13383984D02*
X9296372Y-13183984D01*
X9296372Y-13183984D02*
X9277325Y-13212555D01*
X9277325Y-13212555D02*
X9258277Y-13231603D01*
X9258277Y-13231603D02*
X9239230Y-13241127D01*
X9477325Y-13183984D02*
X9496372Y-13183984D01*
X9496372Y-13183984D02*
X9515420Y-13193508D01*
X9515420Y-13193508D02*
X9524944Y-13203031D01*
X9524944Y-13203031D02*
X9534468Y-13222079D01*
X9534468Y-13222079D02*
X9543991Y-13260174D01*
X9543991Y-13260174D02*
X9543991Y-13307793D01*
X9543991Y-13307793D02*
X9534468Y-13345888D01*
X9534468Y-13345888D02*
X9524944Y-13364936D01*
X9524944Y-13364936D02*
X9515420Y-13374460D01*
X9515420Y-13374460D02*
X9496372Y-13383984D01*
X9496372Y-13383984D02*
X9477325Y-13383984D01*
X9477325Y-13383984D02*
X9458277Y-13374460D01*
X9458277Y-13374460D02*
X9448753Y-13364936D01*
X9448753Y-13364936D02*
X9439230Y-13345888D01*
X9439230Y-13345888D02*
X9429706Y-13307793D01*
X9429706Y-13307793D02*
X9429706Y-13260174D01*
X9429706Y-13260174D02*
X9439230Y-13222079D01*
X9439230Y-13222079D02*
X9448753Y-13203031D01*
X9448753Y-13203031D02*
X9458277Y-13193508D01*
X9458277Y-13193508D02*
X9477325Y-13183984D01*
X9715420Y-13250650D02*
X9715420Y-13383984D01*
X9667801Y-13174460D02*
X9620182Y-13317317D01*
X9620182Y-13317317D02*
X9743991Y-13317317D01*
X9972563Y-13383984D02*
X9972563Y-13183984D01*
X10058277Y-13383984D02*
X10058277Y-13279222D01*
X10058277Y-13279222D02*
X10048753Y-13260174D01*
X10048753Y-13260174D02*
X10029706Y-13250650D01*
X10029706Y-13250650D02*
X10001134Y-13250650D01*
X10001134Y-13250650D02*
X9982087Y-13260174D01*
X9982087Y-13260174D02*
X9972563Y-13269698D01*
X10182087Y-13383984D02*
X10163039Y-13374460D01*
X10163039Y-13374460D02*
X10153515Y-13364936D01*
X10153515Y-13364936D02*
X10143992Y-13345888D01*
X10143992Y-13345888D02*
X10143992Y-13288746D01*
X10143992Y-13288746D02*
X10153515Y-13269698D01*
X10153515Y-13269698D02*
X10163039Y-13260174D01*
X10163039Y-13260174D02*
X10182087Y-13250650D01*
X10182087Y-13250650D02*
X10210658Y-13250650D01*
X10210658Y-13250650D02*
X10229706Y-13260174D01*
X10229706Y-13260174D02*
X10239230Y-13269698D01*
X10239230Y-13269698D02*
X10248753Y-13288746D01*
X10248753Y-13288746D02*
X10248753Y-13345888D01*
X10248753Y-13345888D02*
X10239230Y-13364936D01*
X10239230Y-13364936D02*
X10229706Y-13374460D01*
X10229706Y-13374460D02*
X10210658Y-13383984D01*
X10210658Y-13383984D02*
X10182087Y-13383984D01*
X10363039Y-13383984D02*
X10343992Y-13374460D01*
X10343992Y-13374460D02*
X10334468Y-13355412D01*
X10334468Y-13355412D02*
X10334468Y-13183984D01*
X10515420Y-13374460D02*
X10496373Y-13383984D01*
X10496373Y-13383984D02*
X10458277Y-13383984D01*
X10458277Y-13383984D02*
X10439230Y-13374460D01*
X10439230Y-13374460D02*
X10429706Y-13355412D01*
X10429706Y-13355412D02*
X10429706Y-13279222D01*
X10429706Y-13279222D02*
X10439230Y-13260174D01*
X10439230Y-13260174D02*
X10458277Y-13250650D01*
X10458277Y-13250650D02*
X10496373Y-13250650D01*
X10496373Y-13250650D02*
X10515420Y-13260174D01*
X10515420Y-13260174D02*
X10524944Y-13279222D01*
X10524944Y-13279222D02*
X10524944Y-13298269D01*
X10524944Y-13298269D02*
X10429706Y-13317317D01*
X10601134Y-13374460D02*
X10620182Y-13383984D01*
X10620182Y-13383984D02*
X10658277Y-13383984D01*
X10658277Y-13383984D02*
X10677325Y-13374460D01*
X10677325Y-13374460D02*
X10686849Y-13355412D01*
X10686849Y-13355412D02*
X10686849Y-13345888D01*
X10686849Y-13345888D02*
X10677325Y-13326841D01*
X10677325Y-13326841D02*
X10658277Y-13317317D01*
X10658277Y-13317317D02*
X10629706Y-13317317D01*
X10629706Y-13317317D02*
X10610658Y-13307793D01*
X10610658Y-13307793D02*
X10601134Y-13288746D01*
X10601134Y-13288746D02*
X10601134Y-13279222D01*
X10601134Y-13279222D02*
X10610658Y-13260174D01*
X10610658Y-13260174D02*
X10629706Y-13250650D01*
X10629706Y-13250650D02*
X10658277Y-13250650D01*
X10658277Y-13250650D02*
X10677325Y-13260174D01*
X10753515Y-13460174D02*
X10763039Y-13450650D01*
X10763039Y-13450650D02*
X10782087Y-13422079D01*
X10782087Y-13422079D02*
X10791611Y-13403031D01*
X10791611Y-13403031D02*
X10801134Y-13374460D01*
X10801134Y-13374460D02*
X10810658Y-13326841D01*
X10810658Y-13326841D02*
X10810658Y-13288746D01*
X10810658Y-13288746D02*
X10801134Y-13241127D01*
X10801134Y-13241127D02*
X10791611Y-13212555D01*
X10791611Y-13212555D02*
X10782087Y-13193508D01*
X10782087Y-13193508D02*
X10763039Y-13164936D01*
X10763039Y-13164936D02*
X10753515Y-13155412D01*
D12*
X5597500Y-13556500D02*
G75*
G02*
X5537500Y-13556500I-30000J0D01*
G01*
X5537500Y-13556500D02*
G75*
G02*
X5597500Y-13556500I30000J0D01*
G01*
D11*
X5896372Y-13447984D02*
X5915420Y-13447984D01*
X5915420Y-13447984D02*
X5934467Y-13457508D01*
X5934467Y-13457508D02*
X5943991Y-13467031D01*
X5943991Y-13467031D02*
X5953515Y-13486079D01*
X5953515Y-13486079D02*
X5963039Y-13524174D01*
X5963039Y-13524174D02*
X5963039Y-13571793D01*
X5963039Y-13571793D02*
X5953515Y-13609888D01*
X5953515Y-13609888D02*
X5943991Y-13628936D01*
X5943991Y-13628936D02*
X5934467Y-13638460D01*
X5934467Y-13638460D02*
X5915420Y-13647984D01*
X5915420Y-13647984D02*
X5896372Y-13647984D01*
X5896372Y-13647984D02*
X5877324Y-13638460D01*
X5877324Y-13638460D02*
X5867801Y-13628936D01*
X5867801Y-13628936D02*
X5858277Y-13609888D01*
X5858277Y-13609888D02*
X5848753Y-13571793D01*
X5848753Y-13571793D02*
X5848753Y-13524174D01*
X5848753Y-13524174D02*
X5858277Y-13486079D01*
X5858277Y-13486079D02*
X5867801Y-13467031D01*
X5867801Y-13467031D02*
X5877324Y-13457508D01*
X5877324Y-13457508D02*
X5896372Y-13447984D01*
X6048753Y-13628936D02*
X6058277Y-13638460D01*
X6058277Y-13638460D02*
X6048753Y-13647984D01*
X6048753Y-13647984D02*
X6039229Y-13638460D01*
X6039229Y-13638460D02*
X6048753Y-13628936D01*
X6048753Y-13628936D02*
X6048753Y-13647984D01*
X6229705Y-13447984D02*
X6191610Y-13447984D01*
X6191610Y-13447984D02*
X6172562Y-13457508D01*
X6172562Y-13457508D02*
X6163039Y-13467031D01*
X6163039Y-13467031D02*
X6143991Y-13495603D01*
X6143991Y-13495603D02*
X6134467Y-13533698D01*
X6134467Y-13533698D02*
X6134467Y-13609888D01*
X6134467Y-13609888D02*
X6143991Y-13628936D01*
X6143991Y-13628936D02*
X6153515Y-13638460D01*
X6153515Y-13638460D02*
X6172562Y-13647984D01*
X6172562Y-13647984D02*
X6210658Y-13647984D01*
X6210658Y-13647984D02*
X6229705Y-13638460D01*
X6229705Y-13638460D02*
X6239229Y-13628936D01*
X6239229Y-13628936D02*
X6248753Y-13609888D01*
X6248753Y-13609888D02*
X6248753Y-13562269D01*
X6248753Y-13562269D02*
X6239229Y-13543222D01*
X6239229Y-13543222D02*
X6229705Y-13533698D01*
X6229705Y-13533698D02*
X6210658Y-13524174D01*
X6210658Y-13524174D02*
X6172562Y-13524174D01*
X6172562Y-13524174D02*
X6153515Y-13533698D01*
X6153515Y-13533698D02*
X6143991Y-13543222D01*
X6143991Y-13543222D02*
X6134467Y-13562269D01*
X6372562Y-13447984D02*
X6391610Y-13447984D01*
X6391610Y-13447984D02*
X6410658Y-13457508D01*
X6410658Y-13457508D02*
X6420182Y-13467031D01*
X6420182Y-13467031D02*
X6429705Y-13486079D01*
X6429705Y-13486079D02*
X6439229Y-13524174D01*
X6439229Y-13524174D02*
X6439229Y-13571793D01*
X6439229Y-13571793D02*
X6429705Y-13609888D01*
X6429705Y-13609888D02*
X6420182Y-13628936D01*
X6420182Y-13628936D02*
X6410658Y-13638460D01*
X6410658Y-13638460D02*
X6391610Y-13647984D01*
X6391610Y-13647984D02*
X6372562Y-13647984D01*
X6372562Y-13647984D02*
X6353515Y-13638460D01*
X6353515Y-13638460D02*
X6343991Y-13628936D01*
X6343991Y-13628936D02*
X6334467Y-13609888D01*
X6334467Y-13609888D02*
X6324943Y-13571793D01*
X6324943Y-13571793D02*
X6324943Y-13524174D01*
X6324943Y-13524174D02*
X6334467Y-13486079D01*
X6334467Y-13486079D02*
X6343991Y-13467031D01*
X6343991Y-13467031D02*
X6353515Y-13457508D01*
X6353515Y-13457508D02*
X6372562Y-13447984D01*
X6563039Y-13447984D02*
X6582086Y-13447984D01*
X6582086Y-13447984D02*
X6601134Y-13457508D01*
X6601134Y-13457508D02*
X6610658Y-13467031D01*
X6610658Y-13467031D02*
X6620182Y-13486079D01*
X6620182Y-13486079D02*
X6629705Y-13524174D01*
X6629705Y-13524174D02*
X6629705Y-13571793D01*
X6629705Y-13571793D02*
X6620182Y-13609888D01*
X6620182Y-13609888D02*
X6610658Y-13628936D01*
X6610658Y-13628936D02*
X6601134Y-13638460D01*
X6601134Y-13638460D02*
X6582086Y-13647984D01*
X6582086Y-13647984D02*
X6563039Y-13647984D01*
X6563039Y-13647984D02*
X6543991Y-13638460D01*
X6543991Y-13638460D02*
X6534467Y-13628936D01*
X6534467Y-13628936D02*
X6524943Y-13609888D01*
X6524943Y-13609888D02*
X6515420Y-13571793D01*
X6515420Y-13571793D02*
X6515420Y-13524174D01*
X6515420Y-13524174D02*
X6524943Y-13486079D01*
X6524943Y-13486079D02*
X6534467Y-13467031D01*
X6534467Y-13467031D02*
X6543991Y-13457508D01*
X6543991Y-13457508D02*
X6563039Y-13447984D01*
X6715420Y-13647984D02*
X6715420Y-13514650D01*
X6715420Y-13533698D02*
X6724943Y-13524174D01*
X6724943Y-13524174D02*
X6743991Y-13514650D01*
X6743991Y-13514650D02*
X6772563Y-13514650D01*
X6772563Y-13514650D02*
X6791610Y-13524174D01*
X6791610Y-13524174D02*
X6801134Y-13543222D01*
X6801134Y-13543222D02*
X6801134Y-13647984D01*
X6801134Y-13543222D02*
X6810658Y-13524174D01*
X6810658Y-13524174D02*
X6829705Y-13514650D01*
X6829705Y-13514650D02*
X6858277Y-13514650D01*
X6858277Y-13514650D02*
X6877324Y-13524174D01*
X6877324Y-13524174D02*
X6886848Y-13543222D01*
X6886848Y-13543222D02*
X6886848Y-13647984D01*
X6982086Y-13647984D02*
X6982086Y-13514650D01*
X6982086Y-13533698D02*
X6991610Y-13524174D01*
X6991610Y-13524174D02*
X7010658Y-13514650D01*
X7010658Y-13514650D02*
X7039229Y-13514650D01*
X7039229Y-13514650D02*
X7058277Y-13524174D01*
X7058277Y-13524174D02*
X7067801Y-13543222D01*
X7067801Y-13543222D02*
X7067801Y-13647984D01*
X7067801Y-13543222D02*
X7077324Y-13524174D01*
X7077324Y-13524174D02*
X7096372Y-13514650D01*
X7096372Y-13514650D02*
X7124943Y-13514650D01*
X7124943Y-13514650D02*
X7143991Y-13524174D01*
X7143991Y-13524174D02*
X7153515Y-13543222D01*
X7153515Y-13543222D02*
X7153515Y-13647984D01*
X7543991Y-13438460D02*
X7372563Y-13695603D01*
X7801134Y-13447984D02*
X7820182Y-13447984D01*
X7820182Y-13447984D02*
X7839229Y-13457508D01*
X7839229Y-13457508D02*
X7848753Y-13467031D01*
X7848753Y-13467031D02*
X7858277Y-13486079D01*
X7858277Y-13486079D02*
X7867801Y-13524174D01*
X7867801Y-13524174D02*
X7867801Y-13571793D01*
X7867801Y-13571793D02*
X7858277Y-13609888D01*
X7858277Y-13609888D02*
X7848753Y-13628936D01*
X7848753Y-13628936D02*
X7839229Y-13638460D01*
X7839229Y-13638460D02*
X7820182Y-13647984D01*
X7820182Y-13647984D02*
X7801134Y-13647984D01*
X7801134Y-13647984D02*
X7782086Y-13638460D01*
X7782086Y-13638460D02*
X7772563Y-13628936D01*
X7772563Y-13628936D02*
X7763039Y-13609888D01*
X7763039Y-13609888D02*
X7753515Y-13571793D01*
X7753515Y-13571793D02*
X7753515Y-13524174D01*
X7753515Y-13524174D02*
X7763039Y-13486079D01*
X7763039Y-13486079D02*
X7772563Y-13467031D01*
X7772563Y-13467031D02*
X7782086Y-13457508D01*
X7782086Y-13457508D02*
X7801134Y-13447984D01*
X7953515Y-13628936D02*
X7963039Y-13638460D01*
X7963039Y-13638460D02*
X7953515Y-13647984D01*
X7953515Y-13647984D02*
X7943991Y-13638460D01*
X7943991Y-13638460D02*
X7953515Y-13628936D01*
X7953515Y-13628936D02*
X7953515Y-13647984D01*
X8086848Y-13447984D02*
X8105896Y-13447984D01*
X8105896Y-13447984D02*
X8124944Y-13457508D01*
X8124944Y-13457508D02*
X8134467Y-13467031D01*
X8134467Y-13467031D02*
X8143991Y-13486079D01*
X8143991Y-13486079D02*
X8153515Y-13524174D01*
X8153515Y-13524174D02*
X8153515Y-13571793D01*
X8153515Y-13571793D02*
X8143991Y-13609888D01*
X8143991Y-13609888D02*
X8134467Y-13628936D01*
X8134467Y-13628936D02*
X8124944Y-13638460D01*
X8124944Y-13638460D02*
X8105896Y-13647984D01*
X8105896Y-13647984D02*
X8086848Y-13647984D01*
X8086848Y-13647984D02*
X8067801Y-13638460D01*
X8067801Y-13638460D02*
X8058277Y-13628936D01*
X8058277Y-13628936D02*
X8048753Y-13609888D01*
X8048753Y-13609888D02*
X8039229Y-13571793D01*
X8039229Y-13571793D02*
X8039229Y-13524174D01*
X8039229Y-13524174D02*
X8048753Y-13486079D01*
X8048753Y-13486079D02*
X8058277Y-13467031D01*
X8058277Y-13467031D02*
X8067801Y-13457508D01*
X8067801Y-13457508D02*
X8086848Y-13447984D01*
X8229706Y-13467031D02*
X8239229Y-13457508D01*
X8239229Y-13457508D02*
X8258277Y-13447984D01*
X8258277Y-13447984D02*
X8305896Y-13447984D01*
X8305896Y-13447984D02*
X8324944Y-13457508D01*
X8324944Y-13457508D02*
X8334467Y-13467031D01*
X8334467Y-13467031D02*
X8343991Y-13486079D01*
X8343991Y-13486079D02*
X8343991Y-13505127D01*
X8343991Y-13505127D02*
X8334467Y-13533698D01*
X8334467Y-13533698D02*
X8220182Y-13647984D01*
X8220182Y-13647984D02*
X8343991Y-13647984D01*
X8410658Y-13447984D02*
X8534468Y-13447984D01*
X8534468Y-13447984D02*
X8467801Y-13524174D01*
X8467801Y-13524174D02*
X8496372Y-13524174D01*
X8496372Y-13524174D02*
X8515420Y-13533698D01*
X8515420Y-13533698D02*
X8524944Y-13543222D01*
X8524944Y-13543222D02*
X8534468Y-13562269D01*
X8534468Y-13562269D02*
X8534468Y-13609888D01*
X8534468Y-13609888D02*
X8524944Y-13628936D01*
X8524944Y-13628936D02*
X8515420Y-13638460D01*
X8515420Y-13638460D02*
X8496372Y-13647984D01*
X8496372Y-13647984D02*
X8439229Y-13647984D01*
X8439229Y-13647984D02*
X8420182Y-13638460D01*
X8420182Y-13638460D02*
X8410658Y-13628936D01*
X8705896Y-13447984D02*
X8667801Y-13447984D01*
X8667801Y-13447984D02*
X8648753Y-13457508D01*
X8648753Y-13457508D02*
X8639229Y-13467031D01*
X8639229Y-13467031D02*
X8620182Y-13495603D01*
X8620182Y-13495603D02*
X8610658Y-13533698D01*
X8610658Y-13533698D02*
X8610658Y-13609888D01*
X8610658Y-13609888D02*
X8620182Y-13628936D01*
X8620182Y-13628936D02*
X8629706Y-13638460D01*
X8629706Y-13638460D02*
X8648753Y-13647984D01*
X8648753Y-13647984D02*
X8686849Y-13647984D01*
X8686849Y-13647984D02*
X8705896Y-13638460D01*
X8705896Y-13638460D02*
X8715420Y-13628936D01*
X8715420Y-13628936D02*
X8724944Y-13609888D01*
X8724944Y-13609888D02*
X8724944Y-13562269D01*
X8724944Y-13562269D02*
X8715420Y-13543222D01*
X8715420Y-13543222D02*
X8705896Y-13533698D01*
X8705896Y-13533698D02*
X8686849Y-13524174D01*
X8686849Y-13524174D02*
X8648753Y-13524174D01*
X8648753Y-13524174D02*
X8629706Y-13533698D01*
X8629706Y-13533698D02*
X8620182Y-13543222D01*
X8620182Y-13543222D02*
X8610658Y-13562269D01*
X8801134Y-13447984D02*
X8801134Y-13486079D01*
X8877325Y-13447984D02*
X8877325Y-13486079D01*
X9172563Y-13724174D02*
X9163039Y-13714650D01*
X9163039Y-13714650D02*
X9143991Y-13686079D01*
X9143991Y-13686079D02*
X9134468Y-13667031D01*
X9134468Y-13667031D02*
X9124944Y-13638460D01*
X9124944Y-13638460D02*
X9115420Y-13590841D01*
X9115420Y-13590841D02*
X9115420Y-13552746D01*
X9115420Y-13552746D02*
X9124944Y-13505127D01*
X9124944Y-13505127D02*
X9134468Y-13476555D01*
X9134468Y-13476555D02*
X9143991Y-13457508D01*
X9143991Y-13457508D02*
X9163039Y-13428936D01*
X9163039Y-13428936D02*
X9172563Y-13419412D01*
X9286849Y-13447984D02*
X9305896Y-13447984D01*
X9305896Y-13447984D02*
X9324944Y-13457508D01*
X9324944Y-13457508D02*
X9334468Y-13467031D01*
X9334468Y-13467031D02*
X9343991Y-13486079D01*
X9343991Y-13486079D02*
X9353515Y-13524174D01*
X9353515Y-13524174D02*
X9353515Y-13571793D01*
X9353515Y-13571793D02*
X9343991Y-13609888D01*
X9343991Y-13609888D02*
X9334468Y-13628936D01*
X9334468Y-13628936D02*
X9324944Y-13638460D01*
X9324944Y-13638460D02*
X9305896Y-13647984D01*
X9305896Y-13647984D02*
X9286849Y-13647984D01*
X9286849Y-13647984D02*
X9267801Y-13638460D01*
X9267801Y-13638460D02*
X9258277Y-13628936D01*
X9258277Y-13628936D02*
X9248753Y-13609888D01*
X9248753Y-13609888D02*
X9239230Y-13571793D01*
X9239230Y-13571793D02*
X9239230Y-13524174D01*
X9239230Y-13524174D02*
X9248753Y-13486079D01*
X9248753Y-13486079D02*
X9258277Y-13467031D01*
X9258277Y-13467031D02*
X9267801Y-13457508D01*
X9267801Y-13457508D02*
X9286849Y-13447984D01*
X9591611Y-13647984D02*
X9591611Y-13447984D01*
X9677325Y-13647984D02*
X9677325Y-13543222D01*
X9677325Y-13543222D02*
X9667801Y-13524174D01*
X9667801Y-13524174D02*
X9648753Y-13514650D01*
X9648753Y-13514650D02*
X9620182Y-13514650D01*
X9620182Y-13514650D02*
X9601134Y-13524174D01*
X9601134Y-13524174D02*
X9591611Y-13533698D01*
X9801134Y-13647984D02*
X9782087Y-13638460D01*
X9782087Y-13638460D02*
X9772563Y-13628936D01*
X9772563Y-13628936D02*
X9763039Y-13609888D01*
X9763039Y-13609888D02*
X9763039Y-13552746D01*
X9763039Y-13552746D02*
X9772563Y-13533698D01*
X9772563Y-13533698D02*
X9782087Y-13524174D01*
X9782087Y-13524174D02*
X9801134Y-13514650D01*
X9801134Y-13514650D02*
X9829706Y-13514650D01*
X9829706Y-13514650D02*
X9848753Y-13524174D01*
X9848753Y-13524174D02*
X9858277Y-13533698D01*
X9858277Y-13533698D02*
X9867801Y-13552746D01*
X9867801Y-13552746D02*
X9867801Y-13609888D01*
X9867801Y-13609888D02*
X9858277Y-13628936D01*
X9858277Y-13628936D02*
X9848753Y-13638460D01*
X9848753Y-13638460D02*
X9829706Y-13647984D01*
X9829706Y-13647984D02*
X9801134Y-13647984D01*
X9982087Y-13647984D02*
X9963039Y-13638460D01*
X9963039Y-13638460D02*
X9953515Y-13619412D01*
X9953515Y-13619412D02*
X9953515Y-13447984D01*
X10134468Y-13638460D02*
X10115420Y-13647984D01*
X10115420Y-13647984D02*
X10077325Y-13647984D01*
X10077325Y-13647984D02*
X10058277Y-13638460D01*
X10058277Y-13638460D02*
X10048753Y-13619412D01*
X10048753Y-13619412D02*
X10048753Y-13543222D01*
X10048753Y-13543222D02*
X10058277Y-13524174D01*
X10058277Y-13524174D02*
X10077325Y-13514650D01*
X10077325Y-13514650D02*
X10115420Y-13514650D01*
X10115420Y-13514650D02*
X10134468Y-13524174D01*
X10134468Y-13524174D02*
X10143992Y-13543222D01*
X10143992Y-13543222D02*
X10143992Y-13562269D01*
X10143992Y-13562269D02*
X10048753Y-13581317D01*
X10220182Y-13638460D02*
X10239230Y-13647984D01*
X10239230Y-13647984D02*
X10277325Y-13647984D01*
X10277325Y-13647984D02*
X10296373Y-13638460D01*
X10296373Y-13638460D02*
X10305896Y-13619412D01*
X10305896Y-13619412D02*
X10305896Y-13609888D01*
X10305896Y-13609888D02*
X10296373Y-13590841D01*
X10296373Y-13590841D02*
X10277325Y-13581317D01*
X10277325Y-13581317D02*
X10248753Y-13581317D01*
X10248753Y-13581317D02*
X10229706Y-13571793D01*
X10229706Y-13571793D02*
X10220182Y-13552746D01*
X10220182Y-13552746D02*
X10220182Y-13543222D01*
X10220182Y-13543222D02*
X10229706Y-13524174D01*
X10229706Y-13524174D02*
X10248753Y-13514650D01*
X10248753Y-13514650D02*
X10277325Y-13514650D01*
X10277325Y-13514650D02*
X10296373Y-13524174D01*
X10543992Y-13571793D02*
X10696373Y-13571793D01*
X10620182Y-13647984D02*
X10620182Y-13495603D01*
X11029706Y-13514650D02*
X11029706Y-13647984D01*
X10982087Y-13438460D02*
X10934468Y-13581317D01*
X10934468Y-13581317D02*
X11058277Y-13581317D01*
X11277325Y-13638460D02*
X11296373Y-13647984D01*
X11296373Y-13647984D02*
X11334468Y-13647984D01*
X11334468Y-13647984D02*
X11353515Y-13638460D01*
X11353515Y-13638460D02*
X11363039Y-13619412D01*
X11363039Y-13619412D02*
X11363039Y-13609888D01*
X11363039Y-13609888D02*
X11353515Y-13590841D01*
X11353515Y-13590841D02*
X11334468Y-13581317D01*
X11334468Y-13581317D02*
X11305896Y-13581317D01*
X11305896Y-13581317D02*
X11286849Y-13571793D01*
X11286849Y-13571793D02*
X11277325Y-13552746D01*
X11277325Y-13552746D02*
X11277325Y-13543222D01*
X11277325Y-13543222D02*
X11286849Y-13524174D01*
X11286849Y-13524174D02*
X11305896Y-13514650D01*
X11305896Y-13514650D02*
X11334468Y-13514650D01*
X11334468Y-13514650D02*
X11353515Y-13524174D01*
X11477325Y-13647984D02*
X11458277Y-13638460D01*
X11458277Y-13638460D02*
X11448754Y-13619412D01*
X11448754Y-13619412D02*
X11448754Y-13447984D01*
X11582087Y-13647984D02*
X11563039Y-13638460D01*
X11563039Y-13638460D02*
X11553515Y-13628936D01*
X11553515Y-13628936D02*
X11543992Y-13609888D01*
X11543992Y-13609888D02*
X11543992Y-13552746D01*
X11543992Y-13552746D02*
X11553515Y-13533698D01*
X11553515Y-13533698D02*
X11563039Y-13524174D01*
X11563039Y-13524174D02*
X11582087Y-13514650D01*
X11582087Y-13514650D02*
X11610658Y-13514650D01*
X11610658Y-13514650D02*
X11629706Y-13524174D01*
X11629706Y-13524174D02*
X11639230Y-13533698D01*
X11639230Y-13533698D02*
X11648754Y-13552746D01*
X11648754Y-13552746D02*
X11648754Y-13609888D01*
X11648754Y-13609888D02*
X11639230Y-13628936D01*
X11639230Y-13628936D02*
X11629706Y-13638460D01*
X11629706Y-13638460D02*
X11610658Y-13647984D01*
X11610658Y-13647984D02*
X11582087Y-13647984D01*
X11705896Y-13514650D02*
X11782087Y-13514650D01*
X11734468Y-13447984D02*
X11734468Y-13619412D01*
X11734468Y-13619412D02*
X11743992Y-13638460D01*
X11743992Y-13638460D02*
X11763039Y-13647984D01*
X11763039Y-13647984D02*
X11782087Y-13647984D01*
X11839230Y-13638460D02*
X11858277Y-13647984D01*
X11858277Y-13647984D02*
X11896373Y-13647984D01*
X11896373Y-13647984D02*
X11915420Y-13638460D01*
X11915420Y-13638460D02*
X11924944Y-13619412D01*
X11924944Y-13619412D02*
X11924944Y-13609888D01*
X11924944Y-13609888D02*
X11915420Y-13590841D01*
X11915420Y-13590841D02*
X11896373Y-13581317D01*
X11896373Y-13581317D02*
X11867801Y-13581317D01*
X11867801Y-13581317D02*
X11848754Y-13571793D01*
X11848754Y-13571793D02*
X11839230Y-13552746D01*
X11839230Y-13552746D02*
X11839230Y-13543222D01*
X11839230Y-13543222D02*
X11848754Y-13524174D01*
X11848754Y-13524174D02*
X11867801Y-13514650D01*
X11867801Y-13514650D02*
X11896373Y-13514650D01*
X11896373Y-13514650D02*
X11915420Y-13524174D01*
X11991611Y-13724174D02*
X12001135Y-13714650D01*
X12001135Y-13714650D02*
X12020182Y-13686079D01*
X12020182Y-13686079D02*
X12029706Y-13667031D01*
X12029706Y-13667031D02*
X12039230Y-13638460D01*
X12039230Y-13638460D02*
X12048754Y-13590841D01*
X12048754Y-13590841D02*
X12048754Y-13552746D01*
X12048754Y-13552746D02*
X12039230Y-13505127D01*
X12039230Y-13505127D02*
X12029706Y-13476555D01*
X12029706Y-13476555D02*
X12020182Y-13457508D01*
X12020182Y-13457508D02*
X12001135Y-13428936D01*
X12001135Y-13428936D02*
X11991611Y-13419412D01*
D12*
X5547500Y-13770500D02*
X5547500Y-13870500D01*
X5497500Y-13820500D02*
X5597500Y-13820500D01*
D11*
X5963039Y-13911984D02*
X5848753Y-13911984D01*
X5905896Y-13911984D02*
X5905896Y-13711984D01*
X5905896Y-13711984D02*
X5886848Y-13740555D01*
X5886848Y-13740555D02*
X5867801Y-13759603D01*
X5867801Y-13759603D02*
X5848753Y-13769127D01*
X6048753Y-13892936D02*
X6058277Y-13902460D01*
X6058277Y-13902460D02*
X6048753Y-13911984D01*
X6048753Y-13911984D02*
X6039229Y-13902460D01*
X6039229Y-13902460D02*
X6048753Y-13892936D01*
X6048753Y-13892936D02*
X6048753Y-13911984D01*
X6182086Y-13711984D02*
X6201134Y-13711984D01*
X6201134Y-13711984D02*
X6220182Y-13721508D01*
X6220182Y-13721508D02*
X6229705Y-13731031D01*
X6229705Y-13731031D02*
X6239229Y-13750079D01*
X6239229Y-13750079D02*
X6248753Y-13788174D01*
X6248753Y-13788174D02*
X6248753Y-13835793D01*
X6248753Y-13835793D02*
X6239229Y-13873888D01*
X6239229Y-13873888D02*
X6229705Y-13892936D01*
X6229705Y-13892936D02*
X6220182Y-13902460D01*
X6220182Y-13902460D02*
X6201134Y-13911984D01*
X6201134Y-13911984D02*
X6182086Y-13911984D01*
X6182086Y-13911984D02*
X6163039Y-13902460D01*
X6163039Y-13902460D02*
X6153515Y-13892936D01*
X6153515Y-13892936D02*
X6143991Y-13873888D01*
X6143991Y-13873888D02*
X6134467Y-13835793D01*
X6134467Y-13835793D02*
X6134467Y-13788174D01*
X6134467Y-13788174D02*
X6143991Y-13750079D01*
X6143991Y-13750079D02*
X6153515Y-13731031D01*
X6153515Y-13731031D02*
X6163039Y-13721508D01*
X6163039Y-13721508D02*
X6182086Y-13711984D01*
X6372562Y-13711984D02*
X6391610Y-13711984D01*
X6391610Y-13711984D02*
X6410658Y-13721508D01*
X6410658Y-13721508D02*
X6420182Y-13731031D01*
X6420182Y-13731031D02*
X6429705Y-13750079D01*
X6429705Y-13750079D02*
X6439229Y-13788174D01*
X6439229Y-13788174D02*
X6439229Y-13835793D01*
X6439229Y-13835793D02*
X6429705Y-13873888D01*
X6429705Y-13873888D02*
X6420182Y-13892936D01*
X6420182Y-13892936D02*
X6410658Y-13902460D01*
X6410658Y-13902460D02*
X6391610Y-13911984D01*
X6391610Y-13911984D02*
X6372562Y-13911984D01*
X6372562Y-13911984D02*
X6353515Y-13902460D01*
X6353515Y-13902460D02*
X6343991Y-13892936D01*
X6343991Y-13892936D02*
X6334467Y-13873888D01*
X6334467Y-13873888D02*
X6324943Y-13835793D01*
X6324943Y-13835793D02*
X6324943Y-13788174D01*
X6324943Y-13788174D02*
X6334467Y-13750079D01*
X6334467Y-13750079D02*
X6343991Y-13731031D01*
X6343991Y-13731031D02*
X6353515Y-13721508D01*
X6353515Y-13721508D02*
X6372562Y-13711984D01*
X6563039Y-13711984D02*
X6582086Y-13711984D01*
X6582086Y-13711984D02*
X6601134Y-13721508D01*
X6601134Y-13721508D02*
X6610658Y-13731031D01*
X6610658Y-13731031D02*
X6620182Y-13750079D01*
X6620182Y-13750079D02*
X6629705Y-13788174D01*
X6629705Y-13788174D02*
X6629705Y-13835793D01*
X6629705Y-13835793D02*
X6620182Y-13873888D01*
X6620182Y-13873888D02*
X6610658Y-13892936D01*
X6610658Y-13892936D02*
X6601134Y-13902460D01*
X6601134Y-13902460D02*
X6582086Y-13911984D01*
X6582086Y-13911984D02*
X6563039Y-13911984D01*
X6563039Y-13911984D02*
X6543991Y-13902460D01*
X6543991Y-13902460D02*
X6534467Y-13892936D01*
X6534467Y-13892936D02*
X6524943Y-13873888D01*
X6524943Y-13873888D02*
X6515420Y-13835793D01*
X6515420Y-13835793D02*
X6515420Y-13788174D01*
X6515420Y-13788174D02*
X6524943Y-13750079D01*
X6524943Y-13750079D02*
X6534467Y-13731031D01*
X6534467Y-13731031D02*
X6543991Y-13721508D01*
X6543991Y-13721508D02*
X6563039Y-13711984D01*
X6715420Y-13911984D02*
X6715420Y-13778650D01*
X6715420Y-13797698D02*
X6724943Y-13788174D01*
X6724943Y-13788174D02*
X6743991Y-13778650D01*
X6743991Y-13778650D02*
X6772563Y-13778650D01*
X6772563Y-13778650D02*
X6791610Y-13788174D01*
X6791610Y-13788174D02*
X6801134Y-13807222D01*
X6801134Y-13807222D02*
X6801134Y-13911984D01*
X6801134Y-13807222D02*
X6810658Y-13788174D01*
X6810658Y-13788174D02*
X6829705Y-13778650D01*
X6829705Y-13778650D02*
X6858277Y-13778650D01*
X6858277Y-13778650D02*
X6877324Y-13788174D01*
X6877324Y-13788174D02*
X6886848Y-13807222D01*
X6886848Y-13807222D02*
X6886848Y-13911984D01*
X6982086Y-13911984D02*
X6982086Y-13778650D01*
X6982086Y-13797698D02*
X6991610Y-13788174D01*
X6991610Y-13788174D02*
X7010658Y-13778650D01*
X7010658Y-13778650D02*
X7039229Y-13778650D01*
X7039229Y-13778650D02*
X7058277Y-13788174D01*
X7058277Y-13788174D02*
X7067801Y-13807222D01*
X7067801Y-13807222D02*
X7067801Y-13911984D01*
X7067801Y-13807222D02*
X7077324Y-13788174D01*
X7077324Y-13788174D02*
X7096372Y-13778650D01*
X7096372Y-13778650D02*
X7124943Y-13778650D01*
X7124943Y-13778650D02*
X7143991Y-13788174D01*
X7143991Y-13788174D02*
X7153515Y-13807222D01*
X7153515Y-13807222D02*
X7153515Y-13911984D01*
X7543991Y-13702460D02*
X7372563Y-13959603D01*
X7801134Y-13711984D02*
X7820182Y-13711984D01*
X7820182Y-13711984D02*
X7839229Y-13721508D01*
X7839229Y-13721508D02*
X7848753Y-13731031D01*
X7848753Y-13731031D02*
X7858277Y-13750079D01*
X7858277Y-13750079D02*
X7867801Y-13788174D01*
X7867801Y-13788174D02*
X7867801Y-13835793D01*
X7867801Y-13835793D02*
X7858277Y-13873888D01*
X7858277Y-13873888D02*
X7848753Y-13892936D01*
X7848753Y-13892936D02*
X7839229Y-13902460D01*
X7839229Y-13902460D02*
X7820182Y-13911984D01*
X7820182Y-13911984D02*
X7801134Y-13911984D01*
X7801134Y-13911984D02*
X7782086Y-13902460D01*
X7782086Y-13902460D02*
X7772563Y-13892936D01*
X7772563Y-13892936D02*
X7763039Y-13873888D01*
X7763039Y-13873888D02*
X7753515Y-13835793D01*
X7753515Y-13835793D02*
X7753515Y-13788174D01*
X7753515Y-13788174D02*
X7763039Y-13750079D01*
X7763039Y-13750079D02*
X7772563Y-13731031D01*
X7772563Y-13731031D02*
X7782086Y-13721508D01*
X7782086Y-13721508D02*
X7801134Y-13711984D01*
X7953515Y-13892936D02*
X7963039Y-13902460D01*
X7963039Y-13902460D02*
X7953515Y-13911984D01*
X7953515Y-13911984D02*
X7943991Y-13902460D01*
X7943991Y-13902460D02*
X7953515Y-13892936D01*
X7953515Y-13892936D02*
X7953515Y-13911984D01*
X8086848Y-13711984D02*
X8105896Y-13711984D01*
X8105896Y-13711984D02*
X8124944Y-13721508D01*
X8124944Y-13721508D02*
X8134467Y-13731031D01*
X8134467Y-13731031D02*
X8143991Y-13750079D01*
X8143991Y-13750079D02*
X8153515Y-13788174D01*
X8153515Y-13788174D02*
X8153515Y-13835793D01*
X8153515Y-13835793D02*
X8143991Y-13873888D01*
X8143991Y-13873888D02*
X8134467Y-13892936D01*
X8134467Y-13892936D02*
X8124944Y-13902460D01*
X8124944Y-13902460D02*
X8105896Y-13911984D01*
X8105896Y-13911984D02*
X8086848Y-13911984D01*
X8086848Y-13911984D02*
X8067801Y-13902460D01*
X8067801Y-13902460D02*
X8058277Y-13892936D01*
X8058277Y-13892936D02*
X8048753Y-13873888D01*
X8048753Y-13873888D02*
X8039229Y-13835793D01*
X8039229Y-13835793D02*
X8039229Y-13788174D01*
X8039229Y-13788174D02*
X8048753Y-13750079D01*
X8048753Y-13750079D02*
X8058277Y-13731031D01*
X8058277Y-13731031D02*
X8067801Y-13721508D01*
X8067801Y-13721508D02*
X8086848Y-13711984D01*
X8220182Y-13711984D02*
X8343991Y-13711984D01*
X8343991Y-13711984D02*
X8277325Y-13788174D01*
X8277325Y-13788174D02*
X8305896Y-13788174D01*
X8305896Y-13788174D02*
X8324944Y-13797698D01*
X8324944Y-13797698D02*
X8334467Y-13807222D01*
X8334467Y-13807222D02*
X8343991Y-13826269D01*
X8343991Y-13826269D02*
X8343991Y-13873888D01*
X8343991Y-13873888D02*
X8334467Y-13892936D01*
X8334467Y-13892936D02*
X8324944Y-13902460D01*
X8324944Y-13902460D02*
X8305896Y-13911984D01*
X8305896Y-13911984D02*
X8248753Y-13911984D01*
X8248753Y-13911984D02*
X8229706Y-13902460D01*
X8229706Y-13902460D02*
X8220182Y-13892936D01*
X8439229Y-13911984D02*
X8477325Y-13911984D01*
X8477325Y-13911984D02*
X8496372Y-13902460D01*
X8496372Y-13902460D02*
X8505896Y-13892936D01*
X8505896Y-13892936D02*
X8524944Y-13864365D01*
X8524944Y-13864365D02*
X8534468Y-13826269D01*
X8534468Y-13826269D02*
X8534468Y-13750079D01*
X8534468Y-13750079D02*
X8524944Y-13731031D01*
X8524944Y-13731031D02*
X8515420Y-13721508D01*
X8515420Y-13721508D02*
X8496372Y-13711984D01*
X8496372Y-13711984D02*
X8458277Y-13711984D01*
X8458277Y-13711984D02*
X8439229Y-13721508D01*
X8439229Y-13721508D02*
X8429706Y-13731031D01*
X8429706Y-13731031D02*
X8420182Y-13750079D01*
X8420182Y-13750079D02*
X8420182Y-13797698D01*
X8420182Y-13797698D02*
X8429706Y-13816746D01*
X8429706Y-13816746D02*
X8439229Y-13826269D01*
X8439229Y-13826269D02*
X8458277Y-13835793D01*
X8458277Y-13835793D02*
X8496372Y-13835793D01*
X8496372Y-13835793D02*
X8515420Y-13826269D01*
X8515420Y-13826269D02*
X8524944Y-13816746D01*
X8524944Y-13816746D02*
X8534468Y-13797698D01*
X8705896Y-13778650D02*
X8705896Y-13911984D01*
X8658277Y-13702460D02*
X8610658Y-13845317D01*
X8610658Y-13845317D02*
X8734468Y-13845317D01*
X8801134Y-13711984D02*
X8801134Y-13750079D01*
X8877325Y-13711984D02*
X8877325Y-13750079D01*
X9172563Y-13988174D02*
X9163039Y-13978650D01*
X9163039Y-13978650D02*
X9143991Y-13950079D01*
X9143991Y-13950079D02*
X9134468Y-13931031D01*
X9134468Y-13931031D02*
X9124944Y-13902460D01*
X9124944Y-13902460D02*
X9115420Y-13854841D01*
X9115420Y-13854841D02*
X9115420Y-13816746D01*
X9115420Y-13816746D02*
X9124944Y-13769127D01*
X9124944Y-13769127D02*
X9134468Y-13740555D01*
X9134468Y-13740555D02*
X9143991Y-13721508D01*
X9143991Y-13721508D02*
X9163039Y-13692936D01*
X9163039Y-13692936D02*
X9172563Y-13683412D01*
X9353515Y-13911984D02*
X9239230Y-13911984D01*
X9296372Y-13911984D02*
X9296372Y-13711984D01*
X9296372Y-13711984D02*
X9277325Y-13740555D01*
X9277325Y-13740555D02*
X9258277Y-13759603D01*
X9258277Y-13759603D02*
X9239230Y-13769127D01*
X9524944Y-13778650D02*
X9524944Y-13911984D01*
X9477325Y-13702460D02*
X9429706Y-13845317D01*
X9429706Y-13845317D02*
X9553515Y-13845317D01*
X9782087Y-13911984D02*
X9782087Y-13711984D01*
X9867801Y-13911984D02*
X9867801Y-13807222D01*
X9867801Y-13807222D02*
X9858277Y-13788174D01*
X9858277Y-13788174D02*
X9839230Y-13778650D01*
X9839230Y-13778650D02*
X9810658Y-13778650D01*
X9810658Y-13778650D02*
X9791611Y-13788174D01*
X9791611Y-13788174D02*
X9782087Y-13797698D01*
X9991611Y-13911984D02*
X9972563Y-13902460D01*
X9972563Y-13902460D02*
X9963039Y-13892936D01*
X9963039Y-13892936D02*
X9953515Y-13873888D01*
X9953515Y-13873888D02*
X9953515Y-13816746D01*
X9953515Y-13816746D02*
X9963039Y-13797698D01*
X9963039Y-13797698D02*
X9972563Y-13788174D01*
X9972563Y-13788174D02*
X9991611Y-13778650D01*
X9991611Y-13778650D02*
X10020182Y-13778650D01*
X10020182Y-13778650D02*
X10039230Y-13788174D01*
X10039230Y-13788174D02*
X10048753Y-13797698D01*
X10048753Y-13797698D02*
X10058277Y-13816746D01*
X10058277Y-13816746D02*
X10058277Y-13873888D01*
X10058277Y-13873888D02*
X10048753Y-13892936D01*
X10048753Y-13892936D02*
X10039230Y-13902460D01*
X10039230Y-13902460D02*
X10020182Y-13911984D01*
X10020182Y-13911984D02*
X9991611Y-13911984D01*
X10172563Y-13911984D02*
X10153515Y-13902460D01*
X10153515Y-13902460D02*
X10143992Y-13883412D01*
X10143992Y-13883412D02*
X10143992Y-13711984D01*
X10324944Y-13902460D02*
X10305896Y-13911984D01*
X10305896Y-13911984D02*
X10267801Y-13911984D01*
X10267801Y-13911984D02*
X10248753Y-13902460D01*
X10248753Y-13902460D02*
X10239230Y-13883412D01*
X10239230Y-13883412D02*
X10239230Y-13807222D01*
X10239230Y-13807222D02*
X10248753Y-13788174D01*
X10248753Y-13788174D02*
X10267801Y-13778650D01*
X10267801Y-13778650D02*
X10305896Y-13778650D01*
X10305896Y-13778650D02*
X10324944Y-13788174D01*
X10324944Y-13788174D02*
X10334468Y-13807222D01*
X10334468Y-13807222D02*
X10334468Y-13826269D01*
X10334468Y-13826269D02*
X10239230Y-13845317D01*
X10410658Y-13902460D02*
X10429706Y-13911984D01*
X10429706Y-13911984D02*
X10467801Y-13911984D01*
X10467801Y-13911984D02*
X10486849Y-13902460D01*
X10486849Y-13902460D02*
X10496373Y-13883412D01*
X10496373Y-13883412D02*
X10496373Y-13873888D01*
X10496373Y-13873888D02*
X10486849Y-13854841D01*
X10486849Y-13854841D02*
X10467801Y-13845317D01*
X10467801Y-13845317D02*
X10439230Y-13845317D01*
X10439230Y-13845317D02*
X10420182Y-13835793D01*
X10420182Y-13835793D02*
X10410658Y-13816746D01*
X10410658Y-13816746D02*
X10410658Y-13807222D01*
X10410658Y-13807222D02*
X10420182Y-13788174D01*
X10420182Y-13788174D02*
X10439230Y-13778650D01*
X10439230Y-13778650D02*
X10467801Y-13778650D01*
X10467801Y-13778650D02*
X10486849Y-13788174D01*
X10563039Y-13988174D02*
X10572563Y-13978650D01*
X10572563Y-13978650D02*
X10591611Y-13950079D01*
X10591611Y-13950079D02*
X10601134Y-13931031D01*
X10601134Y-13931031D02*
X10610658Y-13902460D01*
X10610658Y-13902460D02*
X10620182Y-13854841D01*
X10620182Y-13854841D02*
X10620182Y-13816746D01*
X10620182Y-13816746D02*
X10610658Y-13769127D01*
X10610658Y-13769127D02*
X10601134Y-13740555D01*
X10601134Y-13740555D02*
X10591611Y-13721508D01*
X10591611Y-13721508D02*
X10572563Y-13692936D01*
X10572563Y-13692936D02*
X10563039Y-13683412D01*
D13*
X5581391Y-14123391D02*
X5581391Y-14045609D01*
X5503609Y-14045609D01*
X5503609Y-14123391D01*
X5581391Y-14123391D01*
D11*
X5963039Y-14175984D02*
X5848753Y-14175984D01*
X5905896Y-14175984D02*
X5905896Y-13975984D01*
X5905896Y-13975984D02*
X5886848Y-14004555D01*
X5886848Y-14004555D02*
X5867801Y-14023603D01*
X5867801Y-14023603D02*
X5848753Y-14033127D01*
X6048753Y-14156936D02*
X6058277Y-14166460D01*
X6058277Y-14166460D02*
X6048753Y-14175984D01*
X6048753Y-14175984D02*
X6039229Y-14166460D01*
X6039229Y-14166460D02*
X6048753Y-14156936D01*
X6048753Y-14156936D02*
X6048753Y-14175984D01*
X6248753Y-14175984D02*
X6134467Y-14175984D01*
X6191610Y-14175984D02*
X6191610Y-13975984D01*
X6191610Y-13975984D02*
X6172562Y-14004555D01*
X6172562Y-14004555D02*
X6153515Y-14023603D01*
X6153515Y-14023603D02*
X6134467Y-14033127D01*
X6372562Y-13975984D02*
X6391610Y-13975984D01*
X6391610Y-13975984D02*
X6410658Y-13985508D01*
X6410658Y-13985508D02*
X6420182Y-13995031D01*
X6420182Y-13995031D02*
X6429705Y-14014079D01*
X6429705Y-14014079D02*
X6439229Y-14052174D01*
X6439229Y-14052174D02*
X6439229Y-14099793D01*
X6439229Y-14099793D02*
X6429705Y-14137888D01*
X6429705Y-14137888D02*
X6420182Y-14156936D01*
X6420182Y-14156936D02*
X6410658Y-14166460D01*
X6410658Y-14166460D02*
X6391610Y-14175984D01*
X6391610Y-14175984D02*
X6372562Y-14175984D01*
X6372562Y-14175984D02*
X6353515Y-14166460D01*
X6353515Y-14166460D02*
X6343991Y-14156936D01*
X6343991Y-14156936D02*
X6334467Y-14137888D01*
X6334467Y-14137888D02*
X6324943Y-14099793D01*
X6324943Y-14099793D02*
X6324943Y-14052174D01*
X6324943Y-14052174D02*
X6334467Y-14014079D01*
X6334467Y-14014079D02*
X6343991Y-13995031D01*
X6343991Y-13995031D02*
X6353515Y-13985508D01*
X6353515Y-13985508D02*
X6372562Y-13975984D01*
X6563039Y-13975984D02*
X6582086Y-13975984D01*
X6582086Y-13975984D02*
X6601134Y-13985508D01*
X6601134Y-13985508D02*
X6610658Y-13995031D01*
X6610658Y-13995031D02*
X6620182Y-14014079D01*
X6620182Y-14014079D02*
X6629705Y-14052174D01*
X6629705Y-14052174D02*
X6629705Y-14099793D01*
X6629705Y-14099793D02*
X6620182Y-14137888D01*
X6620182Y-14137888D02*
X6610658Y-14156936D01*
X6610658Y-14156936D02*
X6601134Y-14166460D01*
X6601134Y-14166460D02*
X6582086Y-14175984D01*
X6582086Y-14175984D02*
X6563039Y-14175984D01*
X6563039Y-14175984D02*
X6543991Y-14166460D01*
X6543991Y-14166460D02*
X6534467Y-14156936D01*
X6534467Y-14156936D02*
X6524943Y-14137888D01*
X6524943Y-14137888D02*
X6515420Y-14099793D01*
X6515420Y-14099793D02*
X6515420Y-14052174D01*
X6515420Y-14052174D02*
X6524943Y-14014079D01*
X6524943Y-14014079D02*
X6534467Y-13995031D01*
X6534467Y-13995031D02*
X6543991Y-13985508D01*
X6543991Y-13985508D02*
X6563039Y-13975984D01*
X6715420Y-14175984D02*
X6715420Y-14042650D01*
X6715420Y-14061698D02*
X6724943Y-14052174D01*
X6724943Y-14052174D02*
X6743991Y-14042650D01*
X6743991Y-14042650D02*
X6772563Y-14042650D01*
X6772563Y-14042650D02*
X6791610Y-14052174D01*
X6791610Y-14052174D02*
X6801134Y-14071222D01*
X6801134Y-14071222D02*
X6801134Y-14175984D01*
X6801134Y-14071222D02*
X6810658Y-14052174D01*
X6810658Y-14052174D02*
X6829705Y-14042650D01*
X6829705Y-14042650D02*
X6858277Y-14042650D01*
X6858277Y-14042650D02*
X6877324Y-14052174D01*
X6877324Y-14052174D02*
X6886848Y-14071222D01*
X6886848Y-14071222D02*
X6886848Y-14175984D01*
X6982086Y-14175984D02*
X6982086Y-14042650D01*
X6982086Y-14061698D02*
X6991610Y-14052174D01*
X6991610Y-14052174D02*
X7010658Y-14042650D01*
X7010658Y-14042650D02*
X7039229Y-14042650D01*
X7039229Y-14042650D02*
X7058277Y-14052174D01*
X7058277Y-14052174D02*
X7067801Y-14071222D01*
X7067801Y-14071222D02*
X7067801Y-14175984D01*
X7067801Y-14071222D02*
X7077324Y-14052174D01*
X7077324Y-14052174D02*
X7096372Y-14042650D01*
X7096372Y-14042650D02*
X7124943Y-14042650D01*
X7124943Y-14042650D02*
X7143991Y-14052174D01*
X7143991Y-14052174D02*
X7153515Y-14071222D01*
X7153515Y-14071222D02*
X7153515Y-14175984D01*
X7543991Y-13966460D02*
X7372563Y-14223603D01*
X7801134Y-13975984D02*
X7820182Y-13975984D01*
X7820182Y-13975984D02*
X7839229Y-13985508D01*
X7839229Y-13985508D02*
X7848753Y-13995031D01*
X7848753Y-13995031D02*
X7858277Y-14014079D01*
X7858277Y-14014079D02*
X7867801Y-14052174D01*
X7867801Y-14052174D02*
X7867801Y-14099793D01*
X7867801Y-14099793D02*
X7858277Y-14137888D01*
X7858277Y-14137888D02*
X7848753Y-14156936D01*
X7848753Y-14156936D02*
X7839229Y-14166460D01*
X7839229Y-14166460D02*
X7820182Y-14175984D01*
X7820182Y-14175984D02*
X7801134Y-14175984D01*
X7801134Y-14175984D02*
X7782086Y-14166460D01*
X7782086Y-14166460D02*
X7772563Y-14156936D01*
X7772563Y-14156936D02*
X7763039Y-14137888D01*
X7763039Y-14137888D02*
X7753515Y-14099793D01*
X7753515Y-14099793D02*
X7753515Y-14052174D01*
X7753515Y-14052174D02*
X7763039Y-14014079D01*
X7763039Y-14014079D02*
X7772563Y-13995031D01*
X7772563Y-13995031D02*
X7782086Y-13985508D01*
X7782086Y-13985508D02*
X7801134Y-13975984D01*
X7953515Y-14156936D02*
X7963039Y-14166460D01*
X7963039Y-14166460D02*
X7953515Y-14175984D01*
X7953515Y-14175984D02*
X7943991Y-14166460D01*
X7943991Y-14166460D02*
X7953515Y-14156936D01*
X7953515Y-14156936D02*
X7953515Y-14175984D01*
X8086848Y-13975984D02*
X8105896Y-13975984D01*
X8105896Y-13975984D02*
X8124944Y-13985508D01*
X8124944Y-13985508D02*
X8134467Y-13995031D01*
X8134467Y-13995031D02*
X8143991Y-14014079D01*
X8143991Y-14014079D02*
X8153515Y-14052174D01*
X8153515Y-14052174D02*
X8153515Y-14099793D01*
X8153515Y-14099793D02*
X8143991Y-14137888D01*
X8143991Y-14137888D02*
X8134467Y-14156936D01*
X8134467Y-14156936D02*
X8124944Y-14166460D01*
X8124944Y-14166460D02*
X8105896Y-14175984D01*
X8105896Y-14175984D02*
X8086848Y-14175984D01*
X8086848Y-14175984D02*
X8067801Y-14166460D01*
X8067801Y-14166460D02*
X8058277Y-14156936D01*
X8058277Y-14156936D02*
X8048753Y-14137888D01*
X8048753Y-14137888D02*
X8039229Y-14099793D01*
X8039229Y-14099793D02*
X8039229Y-14052174D01*
X8039229Y-14052174D02*
X8048753Y-14014079D01*
X8048753Y-14014079D02*
X8058277Y-13995031D01*
X8058277Y-13995031D02*
X8067801Y-13985508D01*
X8067801Y-13985508D02*
X8086848Y-13975984D01*
X8324944Y-14042650D02*
X8324944Y-14175984D01*
X8277325Y-13966460D02*
X8229706Y-14109317D01*
X8229706Y-14109317D02*
X8353515Y-14109317D01*
X8410658Y-13975984D02*
X8534468Y-13975984D01*
X8534468Y-13975984D02*
X8467801Y-14052174D01*
X8467801Y-14052174D02*
X8496372Y-14052174D01*
X8496372Y-14052174D02*
X8515420Y-14061698D01*
X8515420Y-14061698D02*
X8524944Y-14071222D01*
X8524944Y-14071222D02*
X8534468Y-14090269D01*
X8534468Y-14090269D02*
X8534468Y-14137888D01*
X8534468Y-14137888D02*
X8524944Y-14156936D01*
X8524944Y-14156936D02*
X8515420Y-14166460D01*
X8515420Y-14166460D02*
X8496372Y-14175984D01*
X8496372Y-14175984D02*
X8439229Y-14175984D01*
X8439229Y-14175984D02*
X8420182Y-14166460D01*
X8420182Y-14166460D02*
X8410658Y-14156936D01*
X8601134Y-13975984D02*
X8724944Y-13975984D01*
X8724944Y-13975984D02*
X8658277Y-14052174D01*
X8658277Y-14052174D02*
X8686849Y-14052174D01*
X8686849Y-14052174D02*
X8705896Y-14061698D01*
X8705896Y-14061698D02*
X8715420Y-14071222D01*
X8715420Y-14071222D02*
X8724944Y-14090269D01*
X8724944Y-14090269D02*
X8724944Y-14137888D01*
X8724944Y-14137888D02*
X8715420Y-14156936D01*
X8715420Y-14156936D02*
X8705896Y-14166460D01*
X8705896Y-14166460D02*
X8686849Y-14175984D01*
X8686849Y-14175984D02*
X8629706Y-14175984D01*
X8629706Y-14175984D02*
X8610658Y-14166460D01*
X8610658Y-14166460D02*
X8601134Y-14156936D01*
X8801134Y-13975984D02*
X8801134Y-14014079D01*
X8877325Y-13975984D02*
X8877325Y-14014079D01*
X9172563Y-14252174D02*
X9163039Y-14242650D01*
X9163039Y-14242650D02*
X9143991Y-14214079D01*
X9143991Y-14214079D02*
X9134468Y-14195031D01*
X9134468Y-14195031D02*
X9124944Y-14166460D01*
X9124944Y-14166460D02*
X9115420Y-14118841D01*
X9115420Y-14118841D02*
X9115420Y-14080746D01*
X9115420Y-14080746D02*
X9124944Y-14033127D01*
X9124944Y-14033127D02*
X9134468Y-14004555D01*
X9134468Y-14004555D02*
X9143991Y-13985508D01*
X9143991Y-13985508D02*
X9163039Y-13956936D01*
X9163039Y-13956936D02*
X9172563Y-13947412D01*
X9334468Y-14042650D02*
X9334468Y-14175984D01*
X9286849Y-13966460D02*
X9239230Y-14109317D01*
X9239230Y-14109317D02*
X9363039Y-14109317D01*
X9591611Y-14175984D02*
X9591611Y-13975984D01*
X9677325Y-14175984D02*
X9677325Y-14071222D01*
X9677325Y-14071222D02*
X9667801Y-14052174D01*
X9667801Y-14052174D02*
X9648753Y-14042650D01*
X9648753Y-14042650D02*
X9620182Y-14042650D01*
X9620182Y-14042650D02*
X9601134Y-14052174D01*
X9601134Y-14052174D02*
X9591611Y-14061698D01*
X9801134Y-14175984D02*
X9782087Y-14166460D01*
X9782087Y-14166460D02*
X9772563Y-14156936D01*
X9772563Y-14156936D02*
X9763039Y-14137888D01*
X9763039Y-14137888D02*
X9763039Y-14080746D01*
X9763039Y-14080746D02*
X9772563Y-14061698D01*
X9772563Y-14061698D02*
X9782087Y-14052174D01*
X9782087Y-14052174D02*
X9801134Y-14042650D01*
X9801134Y-14042650D02*
X9829706Y-14042650D01*
X9829706Y-14042650D02*
X9848753Y-14052174D01*
X9848753Y-14052174D02*
X9858277Y-14061698D01*
X9858277Y-14061698D02*
X9867801Y-14080746D01*
X9867801Y-14080746D02*
X9867801Y-14137888D01*
X9867801Y-14137888D02*
X9858277Y-14156936D01*
X9858277Y-14156936D02*
X9848753Y-14166460D01*
X9848753Y-14166460D02*
X9829706Y-14175984D01*
X9829706Y-14175984D02*
X9801134Y-14175984D01*
X9982087Y-14175984D02*
X9963039Y-14166460D01*
X9963039Y-14166460D02*
X9953515Y-14147412D01*
X9953515Y-14147412D02*
X9953515Y-13975984D01*
X10134468Y-14166460D02*
X10115420Y-14175984D01*
X10115420Y-14175984D02*
X10077325Y-14175984D01*
X10077325Y-14175984D02*
X10058277Y-14166460D01*
X10058277Y-14166460D02*
X10048753Y-14147412D01*
X10048753Y-14147412D02*
X10048753Y-14071222D01*
X10048753Y-14071222D02*
X10058277Y-14052174D01*
X10058277Y-14052174D02*
X10077325Y-14042650D01*
X10077325Y-14042650D02*
X10115420Y-14042650D01*
X10115420Y-14042650D02*
X10134468Y-14052174D01*
X10134468Y-14052174D02*
X10143992Y-14071222D01*
X10143992Y-14071222D02*
X10143992Y-14090269D01*
X10143992Y-14090269D02*
X10048753Y-14109317D01*
X10220182Y-14166460D02*
X10239230Y-14175984D01*
X10239230Y-14175984D02*
X10277325Y-14175984D01*
X10277325Y-14175984D02*
X10296373Y-14166460D01*
X10296373Y-14166460D02*
X10305896Y-14147412D01*
X10305896Y-14147412D02*
X10305896Y-14137888D01*
X10305896Y-14137888D02*
X10296373Y-14118841D01*
X10296373Y-14118841D02*
X10277325Y-14109317D01*
X10277325Y-14109317D02*
X10248753Y-14109317D01*
X10248753Y-14109317D02*
X10229706Y-14099793D01*
X10229706Y-14099793D02*
X10220182Y-14080746D01*
X10220182Y-14080746D02*
X10220182Y-14071222D01*
X10220182Y-14071222D02*
X10229706Y-14052174D01*
X10229706Y-14052174D02*
X10248753Y-14042650D01*
X10248753Y-14042650D02*
X10277325Y-14042650D01*
X10277325Y-14042650D02*
X10296373Y-14052174D01*
X10372563Y-14252174D02*
X10382087Y-14242650D01*
X10382087Y-14242650D02*
X10401134Y-14214079D01*
X10401134Y-14214079D02*
X10410658Y-14195031D01*
X10410658Y-14195031D02*
X10420182Y-14166460D01*
X10420182Y-14166460D02*
X10429706Y-14118841D01*
X10429706Y-14118841D02*
X10429706Y-14080746D01*
X10429706Y-14080746D02*
X10420182Y-14033127D01*
X10420182Y-14033127D02*
X10410658Y-14004555D01*
X10410658Y-14004555D02*
X10401134Y-13985508D01*
X10401134Y-13985508D02*
X10382087Y-13956936D01*
X10382087Y-13956936D02*
X10372563Y-13947412D01*
M02*
