M48
; DRILL file {KiCad 9.0.4} date 2025-10-31T21:14:42-0600
; FORMAT={-:-/ absolute / metric / decimal}
; #@! TF.CreationDate,2025-10-31T21:14:42-06:00
; #@! TF.GenerationSoftware,Kicad,Pcbnew,9.0.4
; #@! TF.FileFunction,Plated,1,2,PTH
FMAT,2
METRIC
; #@! TA.AperFunction,Plated,PTH,ViaDrill
T1C0.300
; #@! TA.AperFunction,Plated,PTH,ComponentDrill
T2C0.600
; #@! TA.AperFunction,Plated,PTH,ComponentDrill
T3C1.000
; #@! TA.AperFunction,Plated,PTH,ComponentDrill
T4C1.100
%
G90
G05
T1
X60.64Y-108.09
X60.64Y-117.8
X60.78Y-99.77
X64.0Y-91.3
X65.08Y-108.23
X65.32Y-100.51
X65.42Y-96.0
X67.15Y-80.39
X68.63Y-105.67
X68.74Y-97.24
X69.4Y-93.03
X70.63Y-103.64
X70.65Y-100.01
X71.58Y-108.23
X73.84Y-88.36
X77.4Y-85.45
X78.245Y-105.66
X78.345Y-109.26
X79.0Y-103.8
X79.85Y-82.92
X79.98Y-97.86
X80.05Y-96.22
X80.6Y-121.86
X81.28Y-85.84
X81.33Y-93.51
X81.55Y-109.68
X81.55Y-118.96
X83.53Y-114.53
X83.56Y-109.01
X84.07Y-84.75
X84.63Y-115.38
X84.77Y-102.69
X85.25Y-89.62
X85.25Y-98.75
X85.42Y-94.99
X85.625Y-101.75
X85.625Y-104.15
X86.2Y-84.05
X86.489Y-95.555
X87.22Y-95.03
X87.24Y-80.71
X87.575Y-107.4
X88.26Y-94.08
X88.29Y-83.13
X88.5Y-116.83
X88.525Y-107.175
X89.52Y-116.82
X89.53Y-109.68
X89.69Y-84.57
X89.76Y-104.08
X89.81Y-94.12
X91.06Y-95.15
X91.07Y-81.93
X91.91Y-91.71
X92.02Y-97.52
X92.3Y-109.9
X92.3Y-113.91
X92.82Y-95.99
X92.92Y-87.19
X93.39Y-104.51
X93.7Y-112.26
X94.28Y-114.77
X94.28Y-121.57
X94.76Y-104.02
X94.88Y-109.72
X95.175Y-99.15
X96.16Y-101.45
X96.41Y-94.57
X97.37Y-101.5
X97.74Y-96.82
X102.38Y-109.78
X102.39Y-112.14
X103.38Y-91.38
X103.43Y-106.48
X103.47Y-103.61
X103.53Y-86.12
X104.66Y-92.87
X104.8Y-81.62
X105.02Y-121.08
X107.22Y-87.05
X107.36Y-81.57
X109.885Y-118.847
X110.935Y-118.847
X112.545Y-85.75
X112.84Y-96.59
X112.92Y-94.31
X112.96Y-113.985
X113.285Y-109.56
X113.285Y-110.585
X114.035Y-113.985
X114.93Y-88.47
X115.85Y-96.62
X116.82Y-102.37
X117.132Y-98.35
X117.21Y-114.485
X117.62Y-83.67
X118.25Y-122.09
X118.3Y-117.14
X121.52Y-101.96
X121.82Y-95.57
X121.92Y-97.56
X122.72Y-105.98
X124.55Y-114.84
X128.812Y-107.73
T3
X58.85Y-86.635
X58.85Y-89.175
X83.26Y-121.86
X85.8Y-121.86
X88.34Y-121.86
X90.88Y-121.86
X92.08Y-79.29
X94.62Y-79.29
X97.16Y-79.29
X99.7Y-79.29
X102.24Y-79.29
X104.78Y-79.29
X107.32Y-79.29
X109.86Y-79.29
T4
X65.11Y-110.25
X65.11Y-114.75
X71.61Y-110.25
X71.61Y-114.75
T2
G00X123.66Y-95.69
M15
G01X124.76Y-95.69
M16
G05
G00X123.66Y-104.33
M15
G01X124.76Y-104.33
M16
G05
G00X127.99Y-95.69
M15
G01X128.79Y-95.69
M16
G05
G00X127.99Y-104.33
M15
G01X128.79Y-104.33
M16
G05
M30
